<?xml version="1.0" standalone="no"?>
<!DOCTYPE svg PUBLIC "-//W3C//DTD SVG 20010904//EN"
 "http://www.w3.org/TR/2001/REC-SVG-20010904/DTD/svg10.dtd">
<svg version="1.0" xmlns="http://www.w3.org/2000/svg"
 width="607.000000pt" height="607.000000pt" viewBox="0 0 607.000000 607.000000"
 preserveAspectRatio="xMidYMid meet">
<metadata>
Created by potrace 1.14, written by Peter Selinger 2001-2017
</metadata>
<g transform="translate(0.000000,607.000000) scale(0.100000,-0.100000)"
fill="#000000" stroke="none">
<path d="M2575 5919 c-280 -39 -562 -164 -714 -317 -50 -50 -98 -129 -132
-217 -19 -49 -37 -138 -43 -214 -2 -24 -12 -52 -24 -66 -29 -33 -49 -75 -52
-105 -6 -71 -1 -81 76 -155 l76 -72 -61 -121 c-34 -67 -61 -128 -61 -136 0 -8
-4 -16 -8 -18 -18 -8 -160 -408 -217 -615 -16 -57 -32 -103 -36 -103 -4 0 -10
15 -13 33 -10 50 -76 138 -120 161 -22 11 -63 22 -93 24 l-53 4 -2 -33 c-6
-134 14 -219 63 -268 l29 -29 -33 -11 c-32 -11 -127 -93 -127 -111 0 -5 -7
-15 -15 -24 -8 -8 -16 -24 -17 -37 -6 -47 156 -72 247 -38 28 11 53 19 57 19
3 0 0 -24 -7 -52 -8 -29 -16 -64 -18 -78 -11 -56 -38 -149 -62 -210 -32 -78
-176 -373 -186 -380 -18 -13 -20 -64 -4 -132 9 -40 19 -84 21 -97 3 -14 8 -29
12 -35 8 -12 9 -18 11 -45 0 -11 8 -26 16 -35 20 -20 30 -72 16 -80 -17 -11
-13 -29 4 -22 21 8 38 -36 19 -47 -21 -12 -17 -29 5 -22 24 7 39 -25 16 -37
-19 -11 -10 -29 10 -22 10 4 18 -4 26 -22 39 -105 129 -259 218 -378 80 -107
233 -267 316 -332 27 -21 56 -45 63 -51 7 -7 17 -13 21 -13 4 0 16 -8 27 -18
18 -16 83 -58 164 -105 86 -50 290 -142 358 -162 12 -4 20 -10 18 -13 -2 -4
-7 -57 -10 -117 -4 -61 -9 -139 -12 -175 -10 -113 -11 -214 -3 -240 4 -14 20
-54 35 -90 37 -87 53 -174 40 -222 -7 -27 -6 -40 3 -52 19 -22 64 -20 86 4 23
26 29 138 10 208 -15 58 -6 66 24 24 20 -29 39 -117 43 -206 3 -45 6 -50 32
-57 23 -6 33 -3 52 16 14 14 28 24 32 24 47 -7 82 27 82 81 0 75 -61 208 -132
284 -33 37 -93 143 -104 185 -29 118 -46 291 -29 291 4 0 41 -9 83 -19 43 -11
118 -27 167 -35 84 -15 116 -19 235 -31 60 -6 210 -7 235 -2 11 3 43 8 70 11
28 4 57 9 65 11 8 2 26 6 40 9 159 28 411 122 577 216 l52 29 59 -102 c58
-101 84 -147 157 -282 21 -38 58 -106 82 -150 24 -44 56 -104 71 -133 17 -34
35 -55 49 -59 32 -7 78 14 91 42 10 21 6 32 -30 87 -23 35 -47 66 -52 70 -6 4
-7 10 -4 13 9 9 105 -55 142 -94 36 -37 52 -38 95 -7 19 14 48 28 65 32 41 8
66 31 66 60 0 20 -21 50 -80 115 -81 88 -118 122 -144 136 -33 18 -130 23
-181 10 -30 -8 -31 -7 -105 112 -41 67 -87 140 -102 163 -15 24 -32 50 -37 59
-8 12 4 26 57 66 72 55 97 76 182 158 191 184 366 419 465 625 75 156 149 438
172 650 14 140 8 430 -11 526 -2 12 -7 39 -10 60 -17 104 -80 331 -97 349 -5
5 -9 18 -9 28 0 27 -138 306 -197 397 -46 73 -116 173 -138 196 -5 7 -26 31
-45 55 -19 24 -53 62 -75 84 -112 115 -227 247 -317 365 -78 103 -108 135
-203 214 -91 75 -92 75 -150 116 -27 19 -55 40 -62 47 -48 44 -241 141 -366
183 -45 15 -81 33 -80 39 30 131 -17 210 -132 227 -38 5 -62 17 -100 49 -174
146 -334 206 -490 184z m-165 -604 c0 -2 -13 -11 -30 -20 -38 -19 -40 -11 -2
9 31 17 32 18 32 11z m-94 -50 c-11 -8 -25 -15 -30 -15 -6 0 -2 7 8 15 11 8
25 15 30 15 6 0 2 -7 -8 -15z m-57 -28 c-14 -13 -69 -34 -69 -28 0 9 39 29 59
30 8 1 12 -1 10 -2z m-89 -41 c0 -2 -16 -13 -35 -25 -19 -11 -35 -18 -35 -16
0 5 61 45 68 45 1 0 2 -2 2 -4z"/>
</g>
</svg>
