<svg width="377" height="130" viewBox="0 0 377 130" fill="none" xmlns="http://www.w3.org/2000/svg">
<path d="M1.20211 41.2574L0.852047 39.7404V36.1814L0.968734 34.0226L0.793701 32.6224L0.852047 31.2221L0.910388 30.2302L0.852047 28.2465L0.793701 27.2546V15.819L0.852047 13.5436V10.1596L0.910388 8.2342L0.793701 6.77558L0.852047 5.43365V3.79999L0.793701 1.93295L1.08543 0.532677L1.55219 0.065918L2.54405 0.124264L3.88598 0.999435L5.22791 2.04965L6.86157 3.39157L8.67026 4.96689L10.5373 6.48386L12.2876 7.88413L14.5631 9.80951L17.4803 12.085L19.289 13.5436L20.1642 14.1854L20.981 14.7688L22.8481 16.1691L23.8399 15.819L23.7816 14.7105L23.6649 13.1352L23.6066 11.5015L23.5482 10.3346V4.67516L23.7232 2.69144L25.4736 2.10799H26.6405L28.1575 2.45806L28.5659 4.15006V6.77558L28.6826 8.876V10.743L28.7992 12.5517V16.2858L28.9159 18.1528L28.9743 20.0199L28.7992 22.237V23.4622L28.8576 25.6793L28.9159 27.488V29.2967L28.8576 30.5803L28.9743 31.1054L28.9159 32.6807L29.0326 35.4229V40.4406L27.3406 41.3158H25.9987L24.365 41.0824L24.1317 39.5071V36.9399L23.8399 35.3646L21.7979 33.8476L20.981 33.2058L19.289 31.9222L15.905 29.2384L14.2714 27.8964L13.4545 27.1379L11.5875 25.6793L7.21164 22.1786L6.16143 21.4201L5.81136 21.8869V23.3455L5.86971 25.0959V26.9629L5.81136 28.7716V34.081L5.98639 35.0729V39.9738L5.81136 41.3741L4.58612 41.6075H2.54405L1.20211 41.2574ZM53.0789 41.2574L52.7872 40.3239L52.7288 38.4569V33.6142L52.5538 32.0389L52.6705 31.1054L52.6121 30.2302L52.7288 29.5884V27.8381L52.5538 26.2044L52.7288 24.9208V23.7539L52.6705 22.0619V20.895L52.7288 19.8448L52.6121 18.853L52.4954 17.161L52.7288 15.5857L52.6705 13.8353V11.6765L52.7288 10.2179V8.52593L52.5538 7.00896L52.2037 6.07544L51.2702 6.0171L49.8699 5.95875L48.6447 6.07544H47.3611L45.5524 5.95875L44.7939 4.09171L45.0273 2.5164L45.319 2.10799L46.4859 1.9913H54.9459L56.6379 1.81627L58.3299 1.9913H59.3218L60.7804 1.75792H73.0328L73.3829 1.9913L73.6163 3.21654V4.15006L73.2079 5.3753L71.9243 5.66703H69.9406L68.3652 5.84206H67.1984L66.3815 5.90041L65.9148 6.77558L65.8564 8.40924L65.9148 10.393V11.6765L65.6814 14.2437V18.853L65.7397 19.9615V22.3537L65.9148 24.3957L65.6814 26.1461L65.7397 27.9548L65.7981 29.005L65.6814 30.1719L65.7981 31.2221L65.9148 32.5057L65.7397 33.8476L65.6814 34.9562V38.1651L65.623 40.0322L64.9812 41.3158L63.3476 41.4908H60.197L58.68 41.5491H54.4208L53.0789 41.2574ZM96.0942 41.9575L94.9857 41.7825L93.6438 41.9575L92.4185 41.7242H91.1349L89.8513 41.3158L89.4429 39.7404L89.3846 38.5152L89.4429 36.5315L89.618 34.9562L89.5596 33.6142L89.5013 32.6224V31.6305L89.4429 30.872L89.5596 29.8218L89.4429 28.4215L89.5596 27.4297L89.4429 26.0877L89.5596 24.3374L89.5013 23.0538L89.6763 22.2953V7.00896L89.618 4.79186L89.3846 3.33323L90.2014 2.34137L92.0101 2.22468H101.229L102.921 2.28302L104.263 2.22468H105.663L107.705 2.16633L108.93 2.22468H110.855L111.906 2.39971L112.489 2.92482L112.723 4.20841L112.314 5.78372L111.381 6.30882L110.447 6.13379L108.93 6.30882L107.296 6.25048L105.663 6.30882H103.329L102.862 6.71724V10.2763L102.804 11.3265V14.4771L102.571 16.2858V22.3537L103.971 22.7621L105.254 22.7037H109.164L110.855 22.9371L111.556 24.2207L111.614 25.3293L111.089 26.7879L110.272 27.0213L109.455 26.9629H102.921L102.629 27.2546L102.571 28.7133V37.5233L103.679 37.8151L104.729 37.8734H110.039L111.731 38.3985L111.906 40.1489V41.4908L111.439 41.8409L110.272 41.7242H109.28L107.705 41.8992L106.538 41.9575L105.604 41.8409L104.788 41.9575L103.504 41.8992H101.987L101.229 41.9575L100.062 41.8409L99.0115 41.8992L97.9613 42.0159L96.0942 41.9575ZM148.845 41.7825L146.395 41.6075L145.286 41.4908L144.236 41.3158L143.186 41.0824L141.027 40.3822L139.86 39.9738L138.752 39.5071L136.768 38.4569L134.901 37.1733L134.026 36.4731L133.209 35.773L132.45 34.9562L131.284 33.4975L130.292 31.7472L129.708 30.5803L128.775 28.2465L128.425 27.1379L128.133 25.9127L127.958 24.7458L127.9 22.4704V20.4283L128.075 18.2112L128.308 17.0443L129.008 14.8855L129.358 13.8353L129.767 12.8434L130.233 11.8516L130.817 10.9181L132.334 8.93434L134.084 7.12565L135.718 5.72537L136.651 5.08358L137.585 4.50013L138.518 3.97503L139.51 3.44992L141.611 2.57475L142.719 2.16633L143.886 1.81627L145.053 1.52454L147.212 1.11613L148.204 0.999435L150.187 0.882748H152.229L153.513 1.34951L153.746 2.98316V12.3767L153.338 12.9601L151.996 13.0185L150.946 13.1352L148.729 13.4269L147.62 13.6019L146.57 13.8937L145.52 14.3021L144.528 14.8272L142.719 16.1691L141.552 17.6277L140.794 19.4948L140.56 20.7784V22.0036L140.794 23.929L141.494 25.621L142.136 26.6712L143.653 28.3632L145.811 29.5301L146.978 29.9385L149.254 30.4636L150.246 30.522L151.412 30.4053L151.529 29.1217V27.9548L151.588 26.7879L150.479 25.621H148.029L146.512 25.2126L146.278 23.5206L146.862 21.8869L148.554 21.7702H151.763L154.096 21.8869L155.322 22.8204L155.38 24.4541V28.0131L155.322 29.18V33.906L155.263 35.773L155.322 37.6984V38.9236L155.147 40.7907L153.863 41.6658L151.529 41.8409L148.845 41.7825ZM173.824 41.3158L173.474 39.5654V12.7268L173.533 11.0348L173.649 10.2179L173.533 9.22606L173.649 7.0673L173.708 5.84206V4.55848L173.766 2.63309L174.933 1.75792L179.309 1.64123L181.701 1.40785H184.735L186.952 1.52454L189.227 1.69957L191.619 2.10799L193.837 2.57475L194.887 2.92482L195.937 3.33323L196.987 3.79999L197.921 4.38344L199.671 5.78372L200.429 6.60054L201.013 7.53406L201.538 8.52593L201.946 9.57614L202.413 11.6765L202.53 12.7851L202.588 15.1772L202.413 16.4025L202.121 17.6277L201.071 19.8448L200.488 20.895L199.729 21.8869L198.971 22.7621L198.037 23.5789L196.112 24.9208L195.12 25.3876L194.012 25.7377L192.203 26.2628L191.503 26.6128L192.261 27.5464L192.961 28.3632L194.478 29.9968L201.596 37.5817L203.405 39.3904L204.222 40.849L202.88 41.4324L201.771 41.4908H200.605L199.029 41.0824L197.804 39.9155L195.412 37.4067L194.653 36.5315L193.837 35.7146L192.261 33.906L189.752 31.2221L188.877 30.3469L187.594 29.005L186.952 28.3632L186.66 29.2967V30.3469L186.602 31.3971V39.2737L186.427 41.024L185.727 41.4324H181.817L180.651 41.5491L178.9 41.6658L176.275 41.7242L174.933 41.7825L173.824 41.3158ZM189.461 22.9371L191.794 22.587L193.02 22.237L194.187 21.7119L195.237 21.0701L196.462 20.1949L197.279 19.028L197.862 17.9778L198.329 16.8109L198.621 15.644L198.796 13.7186V12.4934L198.329 10.8597L197.804 9.75117L196.229 7.82579L195.237 7.12565L194.128 6.48386L191.911 5.84206L190.919 5.72537H189.869L187.885 5.78372L186.952 6.19213L186.893 7.76744V12.3183L186.777 13.6019L186.66 14.7105L186.718 15.9357V17.336L186.66 19.203V21.4785L186.952 22.9371L188.469 22.9955L189.461 22.9371ZM243.634 42.1326H241.475L240.133 41.6658L239.55 40.3239L239.141 39.2737L238.208 36.9982L237.566 35.3646L235.991 34.8978H234.649L232.84 35.0729H230.156L227.414 35.1312H226.364L225.139 35.3646L224.788 36.5315L224.38 37.465L223.68 39.3904L223.272 40.3822L222.571 41.5491L221.404 41.6658L220.471 41.8409L219.479 41.7242L219.071 41.3741L219.246 40.2655L219.829 38.3402L220.179 37.3483L220.529 36.2981L221.288 34.256L221.988 32.389L222.688 30.2302L223.096 29.005L223.563 27.7797L224.322 25.3876L224.73 24.2207L225.022 23.0538L225.43 21.8869L226.014 19.9615L226.772 18.0361L227.181 16.8692L227.531 15.7023L227.939 14.4771L228.289 13.3102L229.106 11.0348L230.39 7.65075L231.148 5.43365L231.907 3.74165L232.49 2.34137L233.248 1.40785L234.415 1.69957L235.232 3.21654L236.107 4.96689L237.099 7.41738L237.624 8.58427L238.149 9.80951L239.258 12.0266L239.783 13.1352L240.892 15.2356L241.358 16.3441L242.234 18.3279L242.934 20.1366L243.809 22.0036L244.334 23.0538L244.976 24.8041L245.793 26.5545L246.318 27.6631L247.193 29.7635L247.601 30.697L248.477 32.564L249.41 34.3727L249.702 35.6563L250.519 37.0566L250.985 38.2818L251.861 40.1489V41.2574L251.452 41.8409L250.402 41.9575L248.885 42.0159L248.01 42.2493L246.318 42.0159L244.859 42.2493L243.634 42.1326ZM227.356 31.6305L229.106 31.5722L233.657 31.5138L234.824 31.3971L235.932 30.9887L235.407 29.7635L234.94 28.7133L234.124 26.7295L233.365 24.8041L232.898 23.8123L232.198 22.1203L231.323 20.2533L230.74 18.9697L230.156 19.8448L229.806 20.895L229.398 22.0036L228.698 24.104L228.406 25.2126L227.006 29.4134L226.714 30.522L226.539 31.6305H227.356ZM269.115 41.2574L268.823 40.3239L268.764 38.4569V33.6142L268.589 32.0389L268.706 31.1054L268.648 30.2302L268.764 29.5884V27.8381L268.589 26.2044L268.764 24.9208V23.7539L268.706 22.0619V20.895L268.764 19.8448L268.648 18.853L268.531 17.161L268.764 15.5857L268.706 13.8353V11.6765L268.764 10.2179V8.52593L268.589 7.00896L268.239 6.07544L267.306 6.0171L265.906 5.95875L264.68 6.07544H263.397L261.588 5.95875L260.83 4.09171L261.063 2.5164L261.355 2.10799L262.522 1.9913H270.982L272.674 1.81627L274.366 1.9913H275.357L276.816 1.75792H289.069L289.419 1.9913L289.652 3.21654V4.15006L289.244 5.3753L287.96 5.66703H285.976L284.401 5.84206H283.234L282.417 5.90041L281.95 6.77558L281.892 8.40924L281.95 10.393V11.6765L281.717 14.2437V18.853L281.775 19.9615V22.3537L281.95 24.3957L281.717 26.1461L281.775 27.9548L281.834 29.005L281.717 30.1719L281.834 31.2221L281.95 32.5057L281.775 33.8476L281.717 34.9562V38.1651L281.659 40.0322L281.017 41.3158L279.383 41.4908H276.233L274.716 41.5491H270.456L269.115 41.2574ZM312.129 41.9575L311.021 41.7825L309.679 41.9575L308.454 41.7242H307.17L305.886 41.3158L305.478 39.7404L305.42 38.5152L305.478 36.5315L305.653 34.9562L305.595 33.6142L305.536 32.6224V31.6305L305.478 30.872L305.595 29.8218L305.478 28.4215L305.595 27.4297L305.478 26.0877L305.595 24.3374L305.536 23.0538L305.711 22.2953V7.00896L305.653 4.79186L305.42 3.33323L306.236 2.34137L308.045 2.22468H317.264L318.956 2.28302L320.298 2.22468H321.698L323.74 2.16633L324.965 2.22468H326.891L327.941 2.39971L328.524 2.92482L328.758 4.20841L328.349 5.78372L327.416 6.30882L326.482 6.13379L324.965 6.30882L323.332 6.25048L321.698 6.30882H319.364L318.897 6.71724V10.2763L318.839 11.3265V14.4771L318.606 16.2858V22.3537L320.006 22.7621L321.289 22.7037H325.199L326.891 22.9371L327.591 24.2207L327.649 25.3293L327.124 26.7879L326.307 27.0213L325.49 26.9629H318.956L318.664 27.2546L318.606 28.7133V37.5233L319.714 37.8151L320.764 37.8734H326.074L327.766 38.3985L327.941 40.1489V41.4908L327.474 41.8409L326.307 41.7242H325.315L323.74 41.8992L322.573 41.9575L321.64 41.8409L320.823 41.9575L319.539 41.8992H318.022L317.264 41.9575L316.097 41.8409L315.047 41.8992L313.996 42.0159L312.129 41.9575ZM349.186 41.1407H346.618L346.327 39.8571L346.385 37.8151L346.443 36.7065V33.4392L346.385 31.3388V27.2546L346.443 25.2126V23.1121L346.618 20.895L346.677 19.6698V12.4934L346.735 11.3848V3.1582L347.144 2.57475L348.544 2.39971L350.177 2.16633L351.811 2.22468L352.861 2.16633L354.612 2.28302L356.42 2.16633H357.646L359.571 2.28302L361.496 2.74978L362.663 3.1582L363.889 3.56661L366.047 4.67516L367.039 5.25862L368.206 5.84206L369.315 6.65889L371.182 8.29255L372.64 10.1012L373.282 11.0348L373.866 11.9683L374.391 12.9601L375.032 14.7105L375.616 16.5192L375.908 17.6861L376.258 19.9032L376.316 20.9534L376.374 22.0619V23.1121L376.258 25.3293L376.083 26.4378L375.441 28.4215L374.566 30.4636L374.041 31.5722L373.457 32.6807L371.998 34.7811L371.123 35.773L370.19 36.7065L369.14 37.6984L365.464 39.9155L364.122 40.3239L362.955 40.7323L361.788 40.9657L360.68 41.0824L358.579 41.1991L357.237 41.4324H351.344L349.186 41.1407ZM360.738 37.4067L361.788 37.1733L362.78 36.8815L364.822 35.948L365.814 35.3062L366.747 34.6061L367.623 33.7893L369.14 32.0389L369.781 31.0471L371.065 28.7716L371.882 26.3211L372.115 25.2126L372.29 24.104L372.465 21.8869L372.407 20.8367L372.29 19.7281L371.823 17.511L371.473 16.4025L370.598 14.2437L370.073 13.2519L368.614 11.4432L367.798 10.6263L366.047 9.10938L365.114 8.52593L364.122 8.00082L362.022 7.184L360.388 6.89227L359.863 7.88413L359.688 9.86786L359.571 11.7932L359.513 13.6603L359.571 14.8272L359.396 15.5273L359.338 17.511V19.9032L359.279 21.7702L359.221 23.5206L359.163 24.8625L359.104 26.5545L359.046 27.7797V34.5477L358.988 35.8897L359.046 36.9982L359.454 37.5233L360.738 37.4067ZM29.0933 129.475L27.9848 129.3L26.6428 129.475L25.4176 129.242H24.134L22.8504 128.833L22.442 127.258L22.3836 126.033L22.442 124.049L22.617 122.473L22.5587 121.132L22.5003 120.14V119.148L22.442 118.389L22.5587 117.339L22.442 115.939L22.5587 114.947L22.442 113.605L22.5587 111.855L22.5003 110.571L22.6754 109.813V94.5263L22.617 92.3092L22.3836 90.8506L23.2005 89.8587L25.0092 89.742H34.2276L35.9197 89.8004L37.2616 89.742H38.6619L40.7039 89.6837L41.9292 89.742H43.8546L44.9048 89.9171L45.4882 90.4422L45.7216 91.7257L45.3132 93.3011L44.3797 93.8261L43.4461 93.6511L41.9292 93.8261L40.2955 93.7678L38.6619 93.8261H36.3281L35.8613 94.2346V97.7936L35.803 98.8438V101.994L35.5696 103.803V109.871L36.9699 110.279L38.2535 110.221H42.1626L43.8546 110.454L44.5547 111.738L44.613 112.847L44.0879 114.305L43.2711 114.539L42.4543 114.48H35.9197L35.6279 114.772L35.5696 116.231V125.041L36.6781 125.332L37.7283 125.391H43.0377L44.7297 125.916L44.9048 127.666V129.008L44.438 129.358L43.2711 129.242H42.2793L40.7039 129.417L39.537 129.475L38.6035 129.358L37.7867 129.475L36.5031 129.417H34.9861L34.2276 129.475L33.0608 129.358L32.0105 129.417L30.9603 129.533L29.0933 129.475ZM64.8656 129.708L63.8154 129.65H62.8235L60.7231 129.533L59.4978 129.183L59.2061 128.541V125.682L59.1478 124.457V122.065L59.2061 119.965L60.2563 119.265H61.5399L62.9402 119.206L64.6905 119.09L65.7408 118.856L67.0827 117.631L67.141 115.764L66.966 114.714L66.3242 112.555L65.6241 110.338L65.274 109.171L64.9239 108.062L64.6322 106.954L63.9904 104.737L63.6987 103.628L63.3486 102.403L63.2903 101.236L63.2319 100.186L63.2903 99.1355L63.757 97.0351L64.1071 95.9849L64.5739 95.0514L65.6824 93.4177L67.3161 91.8424L69.5915 90.3255L71.9837 89.4503L75.601 88.5168H76.6512L77.9932 88.4001L79.6268 88.2834L80.677 88.225H81.6685L82.9521 88.5168L83.4188 89.8587L83.5355 90.9673V92.0758L83.3021 94.4679L83.3605 95.7515L83.4772 97.6769L82.9521 98.8438L81.6685 99.0188L80.2686 99.1939L78.5183 99.3106L77.5848 99.6606L76.3595 100.594L75.8928 101.586L76.0094 103.278L76.3012 104.387L76.6512 105.553L77.0597 106.662L77.8765 108.821L78.4016 110.454L78.985 112.088L79.5685 114.305L79.8602 115.647L80.2103 117.164L80.327 118.448L80.2686 119.731L79.8019 122.357L78.81 124.807L78.0515 125.858L77.2347 126.791L76.3012 127.608L74.1424 128.891L72.9755 129.3L71.6919 129.592L69.1831 129.65L66.8493 129.883L64.8656 129.708ZM115.514 129.883L114.347 129.65L112.189 129.066L111.08 128.716L110.088 128.308L109.038 127.841L107.404 126.966L106.646 126.441L105.479 125.682L104.604 124.924L103.729 124.107L102.153 122.473L101.453 121.657L100.811 120.781L100.228 119.848L99.1778 117.864L98.2442 115.647L97.6024 113.313L97.3107 111.213L97.0773 109.521V107.712L97.2524 105.729L97.4274 104.737L98.0109 102.695L98.3609 101.586L98.7694 100.536L99.7612 98.6104L100.345 97.6769L100.986 96.7434L101.687 95.9266L102.387 95.0514L104.137 93.4177L105.246 92.6009L107.404 91.2006L109.505 90.1504L110.497 89.742L111.547 89.3919L113.647 88.8085L115.689 88.4001L116.74 88.2834H120.59L121.757 88.4001L122.866 88.6335L125.083 89.2169L126.075 89.567L127.067 89.9754L129.109 90.9673L130.101 91.5507L131.443 92.4842L132.493 93.5344L134.36 95.2264L135.877 97.3268L136.46 98.202L136.985 99.1355L137.51 100.127L138.502 102.228L138.911 103.395L139.552 105.904L139.727 108.471V109.696L139.494 112.088L139.319 113.197L138.677 115.53L138.269 116.697L137.744 117.806L137.16 118.914L136.519 119.965L135.818 121.015L134.826 122.415L131.851 125.449L131.034 126.149L129.284 127.433L127.242 128.541L126.133 129.008L124.966 129.358L123.799 129.65L121.407 129.883L119.015 130H116.623L115.514 129.883ZM119.248 116.989L120.24 116.814L122.341 115.939L123.391 115.297L124.324 114.48L125.783 112.38L126.308 111.155L126.658 108.587L126.542 107.362L126.25 106.079L125.783 104.912L124.674 103.045L123.099 101.819L122.107 101.294L121.115 100.944L119.774 100.769L118.315 100.594L117.09 100.653L115.631 101.178L114.114 101.819L113.064 102.578L111.489 104.445L110.905 105.378L110.497 106.429L110.263 107.537L110.322 110.046L110.613 111.33L111.547 113.488L112.072 114.305L113.764 115.705L114.814 116.289L115.923 116.756L117.09 116.989H119.248ZM157.585 128.833L157.235 127.083V100.244L157.294 98.5521L157.41 97.7353L157.294 96.7434L157.41 94.5846L157.469 93.3594V92.0758L157.527 90.1504L158.694 89.2753L163.07 89.1586L165.462 88.9252H168.496L170.713 89.0419L172.988 89.2169L175.381 89.6253L177.598 90.0921L178.648 90.4422L179.698 90.8506L180.748 91.3173L181.682 91.9008L183.432 93.3011L184.191 94.1179L184.774 95.0514L185.299 96.0433L185.708 97.0935L186.174 99.1939L186.291 100.302L186.349 102.695L186.174 103.92L185.883 105.145L184.832 107.362L184.249 108.412L183.491 109.404L182.732 110.279L181.799 111.096L179.873 112.438L178.881 112.905L177.773 113.255L175.964 113.78L175.264 114.13L176.022 115.064L176.723 115.881L178.239 117.514L185.358 125.099L187.166 126.908L187.983 128.366L186.641 128.95L185.533 129.008H184.366L182.79 128.6L181.565 127.433L179.173 124.924L178.415 124.049L177.598 123.232L176.022 121.423L173.514 118.739L172.638 117.864L171.355 116.522L170.713 115.881L170.421 116.814V117.864L170.363 118.914V126.791L170.188 128.541L169.488 128.95H165.579L164.412 129.066L162.661 129.183L160.036 129.242L158.694 129.3L157.585 128.833ZM173.222 110.454L175.556 110.104L176.781 109.754L177.948 109.229L178.998 108.587L180.223 107.712L181.04 106.545L181.623 105.495L182.09 104.328L182.382 103.161L182.557 101.236V100.011L182.09 98.377L181.565 97.2685L179.99 95.3431L178.998 94.643L177.889 94.0012L175.672 93.3594L174.68 93.2427H173.63L171.646 93.3011L170.713 93.7095L170.655 95.2848V99.8357L170.538 101.119L170.421 102.228L170.48 103.453V104.853L170.421 106.72V108.996L170.713 110.454L172.23 110.513L173.222 110.454ZM208.723 128.775L208.432 127.841L208.373 125.974V121.132L208.198 119.556L208.315 118.623L208.256 117.748L208.373 117.106V115.355L208.198 113.722L208.373 112.438V111.271L208.315 109.579V108.412L208.373 107.362L208.256 106.37L208.14 104.678L208.373 103.103L208.315 101.353V99.1939L208.373 97.7353V96.0433L208.198 94.5263L207.848 93.5928L206.915 93.5344L205.514 93.4761L204.289 93.5928H203.005L201.197 93.4761L200.438 91.609L200.672 90.0337L200.963 89.6253L202.13 89.5086H210.59L212.282 89.3336L213.974 89.5086H214.966L216.425 89.2753H228.677L229.027 89.5086L229.261 90.7339V91.6674L228.852 92.8926L227.569 93.1844H225.585L224.01 93.3594H222.843L222.026 93.4177L221.559 94.2929L221.501 95.9266L221.559 97.9103V99.1939L221.326 101.761V106.37L221.384 107.479V109.871L221.559 111.913L221.326 113.663L221.384 115.472L221.442 116.522L221.326 117.689L221.442 118.739L221.559 120.023L221.384 121.365L221.326 122.473V125.682L221.267 127.549L220.626 128.833L218.992 129.008H215.841L214.324 129.066H210.065L208.723 128.775Z" fill="#ADACAC"/>
</svg>
