<svg width="22" height="64" viewBox="0 0 22 64" fill="none" xmlns="http://www.w3.org/2000/svg">
<path d="M1.12022 62.7324L0.373408 61.1454V58.7183L0.186704 53.3039L0 50.2233V46.5826L0.186704 44.1554V40.328L0 38.6477L0.280056 37.2474L0.093352 36.2205L0.373408 34.3535V18.297L0.46676 16.4299V11.4823L0.746815 10.082V7.93491L0.840167 5.88116L0.746815 3.73407L0.560112 1.58698L0.933519 0.653463L1.96039 0L3.36067 0.280057L6.62798 0H8.49502L11.2956 0.0933534L12.8826 0L15.3097 0.280057L18.7637 0.373408L20.8175 1.49363V3.82743L20.9108 6.16122L20.8175 8.58837L20.9108 11.0155L20.8175 13.6294L20.7241 16.4299L20.9108 19.3238L20.7241 21.2842L20.8175 23.1512L20.7241 25.7651L20.8175 28.8457L20.7241 31.1795L20.8175 33.1399L20.6308 36.1272V45.2756L20.7241 48.1695L20.8175 50.7834L20.7241 52.8371L20.9108 53.9573L20.7241 55.731L20.9108 57.9715L20.7241 59.1851L21.0042 60.2119L20.8175 61.5188L20.5374 62.7324L18.4837 63.1058H5.4144L2.61385 63.1992L1.12022 62.7324Z" fill="#972525"/>
</svg>
