<svg width="32" height="32" viewBox="0 0 32 32" fill="none" xmlns="http://www.w3.org/2000/svg">
<g clip-path="url(#clip0_1811_438)">
<path d="M12 16C16.412 16 20 12.412 20 8C20 3.588 16.412 0 12 0C7.588 0 4 3.588 4 8C4 12.412 7.588 16 12 16ZM21.448 32H17.3333V27.8853L27.0333 18.1853C28.1693 17.0493 30.012 17.0493 31.148 18.1853C32.284 19.3213 32.284 21.164 31.148 22.3L21.448 32ZM14.6667 32H0V25.3333C0 21.6573 2.99067 18.6667 6.66667 18.6667H17.3333C18.86 18.6667 20.252 19.204 21.3773 20.0707L14.6667 26.7813V32Z" fill="#FAFAFA"/>
</g>
<defs>
<clipPath id="clip0_1811_438">
<rect width="32" height="32" fill="white"/>
</clipPath>
</defs>
</svg>
