<svg width="50" height="66" viewBox="0 0 50 66" fill="none" xmlns="http://www.w3.org/2000/svg">
<path d="M0.560112 64.3429L0 61.5423V18.6005L0.093352 15.8933L0.280056 14.5864L0.093352 12.9994L0.280056 9.54539L0.373408 7.585V5.53125L0.46676 2.45064L2.3338 1.05037L9.33518 0.863667L13.1626 0.490265H18.0169L21.5643 0.676966L25.205 0.957024L29.0324 1.61048L32.5798 2.3573L34.2601 2.9174L35.9405 3.57087L37.6208 4.31769L39.1144 5.25121L41.915 7.49164L43.1285 8.79858L44.0621 10.2922L44.9022 11.8792L45.5557 13.5595L46.3025 16.9202L46.4892 18.6939L46.5826 22.5213L46.3025 24.4817L45.8357 26.4421L44.1554 29.9894L43.2219 31.6698L42.0083 33.2567L40.7947 34.657L39.3011 35.964L36.2205 38.111L34.6335 38.8579L32.8598 39.418L29.9659 40.2581L28.8457 40.8182L30.0593 42.3119L31.1795 43.6188L33.6067 46.2327L44.9956 58.3684L47.8895 61.2623L49.1964 63.5961L47.0493 64.5296L45.2756 64.623H43.4086L40.8881 63.9695L38.9277 62.1025L35.1003 58.0883L33.8867 56.6881L32.5798 55.3811L30.0593 52.4872L26.0452 48.193L24.6449 46.7928L22.5911 44.6457L21.5643 43.6188L21.0975 45.1124V46.7928L21.0042 48.4731V61.0756L20.7241 63.8761L19.6039 64.5296H13.3493L11.4823 64.7163L8.68172 64.903L4.48089 64.9964L2.3338 65.0897L0.560112 64.3429ZM25.5784 34.9371L29.3125 34.377L31.2729 33.8169L33.1399 32.9767L34.8202 31.9498L36.7806 30.5495L38.0875 28.6825L39.0211 27.0022L39.7679 25.1351L40.2346 23.2681L40.5147 20.1875V18.2271L39.7679 15.6133L38.9277 13.8396L36.4072 10.759L34.8202 9.63874L33.0465 8.61187L29.4992 7.585L27.9122 7.3983H26.2319L23.0579 7.49164L21.5643 8.1451L21.4709 10.6656V17.947L21.2842 20.0008L21.0975 21.7745L21.1909 23.7349V25.9753L21.0975 28.9626V32.6033L21.5643 34.9371L23.9914 35.0304L25.5784 34.9371Z" fill="#972525"/>
</svg>
