<svg width="165" height="250" viewBox="0 0 165 250" fill="none" xmlns="http://www.w3.org/2000/svg">
<rect x="10" y="10" width="145" height="230" fill="#FAFAFA"/>
<rect x="0.5" y="0.5" width="164" height="249" stroke="#FAFAFA"/>
<path d="M108.962 120.026L103.941 114.999V110.991C103.941 107.138 100.809 104.003 96.9604 104.003H92.9561L87.9373 98.9792C85.2988 96.3403 80.7012 96.3403 78.065 98.9792L73.0439 104.003H69.0396C65.1911 104.003 62.0593 107.138 62.0593 110.991V114.999L57.0382 120.026C54.3206 122.751 54.3206 127.181 57.0382 129.906L62.0593 134.933V138.941C62.0593 142.794 65.1911 145.929 69.0396 145.929H73.0439L78.0627 150.953C79.3819 152.271 81.134 153 83 153C84.866 153 86.6181 152.273 87.935 150.953L92.9561 145.929H96.9604C100.809 145.929 103.941 142.794 103.941 138.941V134.933L108.962 129.906C111.679 127.181 111.679 122.751 108.962 120.026ZM83 141.27C81.0735 141.27 79.5099 139.705 79.5099 137.776C79.5099 135.848 81.0735 134.283 83 134.283C84.9265 134.283 86.4901 135.848 86.4901 137.776C86.4901 139.705 84.9265 141.27 83 141.27ZM86.3668 126.431C85.9294 126.671 85.3267 127.742 85.3267 128.471V129.624C85.3267 130.912 84.2844 131.953 83 131.953C81.7156 131.953 80.6733 130.912 80.6733 129.624V128.471C80.6733 126.065 82.1554 123.433 84.1192 122.35C84.7939 121.98 85.5036 121.104 85.2872 119.867C85.1266 118.954 84.3518 118.179 83.4421 118.02C82.7301 117.888 82.0414 118.069 81.5062 118.523C80.9757 118.966 80.6733 119.618 80.6733 120.31C80.6733 121.598 79.6309 122.639 78.3465 122.639C77.0622 122.639 76.0198 121.598 76.0198 120.31C76.0198 118.239 76.9295 116.287 78.514 114.955C80.0962 113.623 82.1856 113.059 84.2448 113.434C87.0578 113.926 89.3729 116.241 89.8685 119.064C90.3874 122.027 88.9797 124.987 86.3645 126.433L86.3668 126.431Z" fill="url(#paint0_linear_2752_593)"/>
<defs>
<linearGradient id="paint0_linear_2752_593" x1="60.7647" y1="112.849" x2="103.271" y2="124.572" gradientUnits="userSpaceOnUse">
<stop offset="1" stop-color="#207C96"/>
</linearGradient>
</defs>
</svg>
