<svg width="166" height="250" viewBox="0 0 166 250" fill="none" xmlns="http://www.w3.org/2000/svg">
<rect x="0.516602" y="0.5" width="164" height="249" stroke="#FAFAFA"/>
<rect x="10.0166" y="10" width="145" height="230" fill="url(#paint0_linear_2880_7)"/>
<mask id="mask0_2880_7" style="mask-type:alpha" maskUnits="userSpaceOnUse" x="10" y="10" width="146" height="230">
<rect x="10.0166" y="10" width="145" height="230" fill="url(#paint1_linear_2880_7)"/>
</mask>
<g mask="url(#mask0_2880_7)">
<path fill-rule="evenodd" clip-rule="evenodd" d="M148.83 93.5694L164.611 109.367C173.152 117.931 173.152 131.855 164.611 140.419L148.83 156.216V168.815C148.83 180.922 138.987 190.776 126.892 190.776H114.307L98.5267 206.565C94.3877 210.716 88.8813 213 83.0166 213C77.1519 213 71.6455 210.709 67.4992 206.565L51.7259 190.776H39.1409C27.0458 190.776 17.2031 180.922 17.2031 168.815V156.216L1.42245 140.419C-7.11868 131.855 -7.11868 117.931 1.42245 109.367L17.2031 93.5694V80.9712C17.2031 68.8634 27.0458 59.0103 39.1409 59.0103H51.7259L67.5065 43.2204C75.7917 34.9265 90.2415 34.9265 98.534 43.2204L114.307 59.0103H126.892C138.987 59.0103 148.83 68.8634 148.83 80.9712V93.5694Z" fill="#FAFAFA"/>
</g>
<rect x="32.4349" y="90.5792" width="111" height="51" transform="rotate(10 32.4349 90.5792)" fill="#D2B970" stroke="black"/>
<path d="M47.8462 129.147C46.8614 128.973 46.009 128.621 45.2891 128.09C44.5692 127.559 44.0316 126.91 43.6764 126.144C43.3211 125.377 43.1981 124.554 43.3072 123.673L45.3216 124.028C45.2628 124.82 45.5019 125.525 46.0388 126.145C46.5823 126.76 47.2933 127.145 48.1718 127.3C48.8768 127.424 49.5326 127.37 50.1392 127.136C50.7513 126.904 51.2649 126.527 51.6799 126.006C52.1014 125.48 52.3768 124.851 52.5061 124.118C52.6383 123.368 52.5911 122.67 52.3646 122.025C52.1446 121.374 51.7794 120.828 51.2688 120.386C50.7583 119.944 50.137 119.656 49.4049 119.521C48.88 119.423 48.3257 119.409 47.7421 119.479C47.1596 119.543 46.6665 119.673 46.263 119.867L44.3572 119.289L46.8898 111.012L55.8202 112.586L55.4946 114.433L48.31 113.166L46.8118 118.129L46.9125 118.147C47.3144 117.929 47.7974 117.775 48.3615 117.684C48.9256 117.593 49.4959 117.598 50.0722 117.7C51.1241 117.886 52.017 118.303 52.7507 118.951C53.4911 119.595 54.0198 120.392 54.3369 121.343C54.6595 122.294 54.7227 123.326 54.5264 124.44C54.333 125.536 53.9141 126.472 53.2698 127.247C52.632 128.017 51.8412 128.576 50.8973 128.923C49.9543 129.264 48.9373 129.339 47.8462 129.147ZM66.2265 128.822L66.3864 127.915C66.4969 127.289 66.7267 126.738 67.0758 126.263C67.4316 125.783 67.8861 125.431 68.4393 125.205C68.9991 124.975 69.6372 124.923 70.3534 125.049C71.0808 125.178 71.6626 125.445 72.0988 125.85C72.5359 126.251 72.834 126.736 72.9931 127.306C73.1531 127.871 73.1779 128.467 73.0674 129.094L72.9075 130C72.797 130.627 72.5667 131.18 72.2166 131.661C71.873 132.137 71.4241 132.49 70.8699 132.722C70.3222 132.948 69.6903 132.998 68.9741 132.872C68.2467 132.744 67.6616 132.479 67.2188 132.078C66.7771 131.671 66.4734 131.185 66.3077 130.619C66.1431 130.048 66.116 129.449 66.2265 128.822ZM68.0986 128.217L67.9387 129.124C67.847 129.644 67.8877 130.133 68.0609 130.591C68.2351 131.043 68.6243 131.322 69.2286 131.428C69.8162 131.532 70.2662 131.401 70.5789 131.035C70.8981 130.664 71.1036 130.218 71.1953 129.698L71.3552 128.792C71.4469 128.271 71.4113 127.786 71.2483 127.336C71.0863 126.881 70.7032 126.6 70.0988 126.493C69.5113 126.389 69.0523 126.522 68.7219 126.891C68.3981 127.255 68.1903 127.697 68.0986 128.217ZM59.3999 117.475L59.5597 116.569C59.6703 115.942 59.9001 115.391 60.2492 114.916C60.605 114.437 61.0595 114.084 61.6127 113.859C62.1725 113.629 62.8106 113.577 63.5268 113.703C64.2542 113.831 64.836 114.098 65.2722 114.504C65.7093 114.904 66.0074 115.389 66.1665 115.96C66.3265 116.525 66.3513 117.12 66.2408 117.747L66.0809 118.654C65.9704 119.28 65.7401 119.834 65.39 120.314C65.0464 120.79 64.5975 121.144 64.0433 121.375C63.4956 121.602 62.8637 121.652 62.1475 121.525C61.4201 121.397 60.835 121.133 60.3922 120.731C59.9505 120.325 59.6468 119.838 59.4811 119.273C59.3165 118.701 59.2894 118.102 59.3999 117.475ZM61.272 116.871L61.1121 117.777C61.0204 118.298 61.0611 118.787 61.2343 119.244C61.4085 119.696 61.7977 119.975 62.402 120.082C62.9895 120.185 63.4396 120.054 63.7523 119.688C64.0715 119.318 64.277 118.872 64.3687 118.352L64.5285 117.445C64.6203 116.925 64.5847 116.44 64.4217 115.99C64.2597 115.534 63.8765 115.253 63.2722 115.147C62.6847 115.043 62.2257 115.176 61.8953 115.544C61.5715 115.908 61.3637 116.351 61.272 116.871ZM57.735 130.648L72.5836 115.542L74.4973 115.88L59.6486 130.985L57.735 130.648ZM92.4206 127.902C92.1009 129.715 91.4973 131.224 90.6098 132.429C89.7223 133.634 88.6446 134.494 87.3769 135.009C86.1091 135.524 84.7422 135.652 83.2762 135.394C81.8101 135.135 80.5695 134.547 79.5543 133.63C78.5392 132.712 77.8206 131.536 77.3988 130.1C76.977 128.664 76.9259 127.039 77.2456 125.226C77.5653 123.413 78.1689 121.904 79.0564 120.699C79.9439 119.494 81.0215 118.634 82.2893 118.119C83.5571 117.604 84.924 117.476 86.39 117.734C87.856 117.993 89.0966 118.581 90.1118 119.498C91.127 120.416 91.8455 121.593 92.2673 123.029C92.6892 124.465 92.7402 126.089 92.4206 127.902ZM90.4062 127.547C90.6686 126.058 90.6411 124.758 90.3237 123.646C90.0119 122.536 89.4798 121.643 88.7277 120.968C87.9811 120.294 87.0874 119.865 86.0466 119.682C85.0059 119.498 84.0167 119.595 83.079 119.972C82.1469 120.35 81.3416 121.007 80.6631 121.943C79.9901 122.88 79.5224 124.093 79.26 125.581C78.9975 127.07 79.0222 128.369 79.3341 129.48C79.6515 130.592 80.1835 131.485 80.9301 132.159C81.6823 132.834 82.5788 133.263 83.6195 133.447C84.6603 133.63 85.6467 133.533 86.5788 133.155C87.5164 132.778 88.3217 132.121 88.9947 131.184C89.6733 130.247 90.1438 129.035 90.4062 127.547ZM94.4051 137.114L97.436 119.924L107.743 121.742L107.417 123.588L99.192 122.138L98.1678 127.946L105.621 129.26L105.295 131.107L97.8423 129.793L96.4866 137.481L94.4051 137.114ZM108.277 139.56L111.308 122.37L121.615 124.188L121.289 126.034L113.064 124.584L112.04 130.392L119.493 131.706L119.167 133.553L111.714 132.239L110.359 139.927L108.277 139.56Z" fill="#FAFAFA"/>
<path d="M45.2891 128.09L44.6957 128.895L44.6957 128.895L45.2891 128.09ZM43.6764 126.144L44.5837 125.723L44.5837 125.723L43.6764 126.144ZM43.3072 123.673L43.4809 122.688L42.4443 122.505L42.3148 123.55L43.3072 123.673ZM45.3216 124.028L46.3189 124.102L46.3859 123.2L45.4953 123.043L45.3216 124.028ZM46.0388 126.145L45.283 126.8L45.2894 126.807L46.0388 126.145ZM50.1392 127.136L49.7842 126.201L49.78 126.203L50.1392 127.136ZM51.6799 126.006L50.8997 125.38L50.8976 125.383L51.6799 126.006ZM52.3646 122.025L51.4172 122.345L51.421 122.356L52.3646 122.025ZM49.4049 119.521L49.2208 120.504L49.2238 120.504L49.4049 119.521ZM47.7421 119.479L47.8523 120.473L47.8615 120.472L47.7421 119.479ZM46.263 119.867L45.9726 120.824L46.3456 120.937L46.6968 120.768L46.263 119.867ZM44.3572 119.289L43.401 118.996L43.1077 119.954L44.0668 120.246L44.3572 119.289ZM46.8898 111.012L47.0634 110.027L46.1924 109.873L45.9336 110.719L46.8898 111.012ZM55.8202 112.586L56.805 112.76L56.9787 111.775L55.9939 111.602L55.8202 112.586ZM55.4946 114.433L55.321 115.418L56.3058 115.591L56.4794 114.607L55.4946 114.433ZM48.31 113.166L48.4837 112.181L47.6093 112.027L47.3527 112.877L48.31 113.166ZM46.8118 118.129L45.8545 117.84L45.529 118.918L46.6381 119.114L46.8118 118.129ZM46.9125 118.147L46.7389 119.132L47.0822 119.192L47.3887 119.026L46.9125 118.147ZM52.7507 118.951L52.0884 119.7L52.0944 119.706L52.7507 118.951ZM54.3369 121.343L53.3883 121.659L53.3899 121.664L54.3369 121.343ZM53.2698 127.247L52.5009 126.608L52.4995 126.609L53.2698 127.247ZM50.8973 128.923L51.2377 129.863L51.2423 129.862L50.8973 128.923ZM48.0198 128.162C47.1688 128.012 46.4643 127.714 45.8826 127.285L44.6957 128.895C45.5537 129.527 46.5539 129.934 47.6725 130.131L48.0198 128.162ZM45.8826 127.285C45.2897 126.848 44.8641 126.328 44.5837 125.723L42.7691 126.564C43.1992 127.492 43.8487 128.27 44.6957 128.895L45.8826 127.285ZM44.5837 125.723C44.3111 125.135 44.2123 124.501 44.2996 123.796L42.3148 123.55C42.1839 124.606 42.3312 125.619 42.7691 126.564L44.5837 125.723ZM43.1336 124.658L45.148 125.013L45.4953 123.043L43.4809 122.688L43.1336 124.658ZM44.3244 123.954C44.2451 125.021 44.5782 125.986 45.283 126.8L46.7946 125.49C46.4255 125.064 46.2805 124.619 46.3189 124.102L44.3244 123.954ZM45.2894 126.807C45.9961 127.607 46.9174 128.094 47.9981 128.285L48.3454 126.315C47.6692 126.196 47.1685 125.913 46.7881 125.483L45.2894 126.807ZM47.9981 128.285C48.8634 128.437 49.7052 128.375 50.4983 128.07L49.78 126.203C49.3599 126.365 48.8902 126.411 48.3454 126.315L47.9981 128.285ZM50.4942 128.071C51.2772 127.774 51.9373 127.288 52.4621 126.629L50.8976 125.383C50.5925 125.766 50.2255 126.034 49.7842 126.201L50.4942 128.071ZM52.46 126.632C52.9974 125.962 53.3356 125.172 53.4909 124.292L51.5213 123.944C51.4181 124.53 51.2055 124.999 50.8997 125.38L52.46 126.632ZM53.4909 124.292C53.6495 123.392 53.5977 122.519 53.3082 121.694L51.421 122.356C51.5845 122.822 51.6271 123.344 51.5213 123.944L53.4909 124.292ZM53.3119 121.704C53.0359 120.888 52.5709 120.191 51.9233 119.63L50.6143 121.142C50.9879 121.466 51.2534 121.86 51.4173 122.345L53.3119 121.704ZM51.9233 119.63C51.2646 119.06 50.4749 118.701 49.5861 118.538L49.2238 120.504C49.799 120.61 50.252 120.829 50.6143 121.142L51.9233 119.63ZM49.5891 118.538C48.9545 118.419 48.2973 118.405 47.6227 118.486L47.8615 120.472C48.3541 120.412 48.8054 120.426 49.2208 120.504L49.5891 118.538ZM47.6319 118.485C46.9698 118.558 46.3606 118.71 45.8293 118.966L46.6968 120.768C46.9725 120.635 47.3493 120.528 47.8523 120.473L47.6319 118.485ZM46.5534 118.91L44.6476 118.332L44.0668 120.246L45.9726 120.824L46.5534 118.91ZM45.3135 119.581L47.846 111.304L45.9336 110.719L43.401 118.996L45.3135 119.581ZM46.7162 111.997L55.6466 113.571L55.9939 111.602L47.0634 110.027L46.7162 111.997ZM54.8354 112.413L54.5098 114.259L56.4794 114.607L56.805 112.76L54.8354 112.413ZM55.6683 113.448L48.4837 112.181L48.1364 114.151L55.321 115.418L55.6683 113.448ZM47.3527 112.877L45.8545 117.84L47.7691 118.418L49.2673 113.455L47.3527 112.877ZM46.6381 119.114L46.7389 119.132L47.0862 117.162L46.9854 117.144L46.6381 119.114ZM47.3887 119.026C47.6705 118.874 48.0408 118.749 48.5206 118.671L48.2024 116.697C47.5539 116.801 46.9583 116.985 46.4363 117.267L47.3887 119.026ZM48.5206 118.671C48.9718 118.599 49.4295 118.602 49.8985 118.685L50.2458 116.715C49.5622 116.595 48.8795 116.588 48.2024 116.697L48.5206 118.671ZM49.8985 118.685C50.7861 118.841 51.5052 119.185 52.0884 119.7L53.413 118.202C52.5288 117.42 51.4622 116.93 50.2458 116.715L49.8985 118.685ZM52.0944 119.706C52.697 120.23 53.1265 120.875 53.3883 121.659L55.2854 121.026C54.913 119.91 54.2851 118.961 53.4071 118.197L52.0944 119.706ZM53.3899 121.664C53.6521 122.437 53.7124 123.297 53.5416 124.266L55.5112 124.613C55.733 123.355 55.667 122.151 55.2838 121.021L53.3899 121.664ZM53.5416 124.266C53.3752 125.21 53.0226 125.98 52.5009 126.608L54.0387 127.886C54.8057 126.964 55.2908 125.863 55.5112 124.613L53.5416 124.266ZM52.4995 126.609C51.9751 127.243 51.3313 127.698 50.5522 127.984L51.2423 129.862C52.3511 129.454 53.2889 128.792 54.04 127.885L52.4995 126.609ZM50.5568 127.983C49.7952 128.258 48.9571 128.327 48.0198 128.162L47.6725 130.131C48.9174 130.351 50.1134 130.27 51.2377 129.863L50.5568 127.983ZM67.0758 126.263L66.2726 125.667L66.2701 125.671L67.0758 126.263ZM68.4393 125.205L68.8168 126.131L68.8195 126.13L68.4393 125.205ZM72.0988 125.85L71.4176 126.583L71.4235 126.588L72.0988 125.85ZM72.9931 127.306L72.0298 127.575L72.031 127.579L72.9931 127.306ZM72.2166 131.661L71.4083 131.072L71.4057 131.076L72.2166 131.661ZM70.8699 132.722L71.2521 133.646L71.2548 133.645L70.8699 132.722ZM67.2188 132.078L66.5415 132.813L66.5474 132.819L67.2188 132.078ZM66.3077 130.619L65.3468 130.896L65.348 130.9L66.3077 130.619ZM68.0609 130.591L67.1256 130.945L67.1278 130.95L68.0609 130.591ZM70.5789 131.035L69.8211 130.382L69.8185 130.385L70.5789 131.035ZM71.2483 127.336L70.3061 127.671L70.3081 127.677L71.2483 127.336ZM68.7219 126.891L67.9772 126.223L67.9747 126.226L68.7219 126.891ZM60.2492 114.916L59.446 114.321L59.4435 114.324L60.2492 114.916ZM61.6127 113.859L61.9902 114.785L61.9929 114.784L61.6127 113.859ZM65.2722 114.504L64.591 115.236L64.5969 115.242L65.2722 114.504ZM66.1665 115.96L65.2032 116.228L65.2043 116.232L66.1665 115.96ZM65.39 120.314L64.5817 119.726L64.5791 119.729L65.39 120.314ZM64.0433 121.375L64.4255 122.299L64.4282 122.298L64.0433 121.375ZM60.3922 120.731L59.7148 121.467L59.7208 121.472L60.3922 120.731ZM59.4811 119.273L58.5202 119.549L58.5214 119.554L59.4811 119.273ZM61.2343 119.244L60.299 119.598L60.3012 119.604L61.2343 119.244ZM63.7523 119.688L62.9945 119.036L62.9919 119.039L63.7523 119.688ZM64.4217 115.99L63.4795 116.325L63.4815 116.33L64.4217 115.99ZM61.8953 115.544L61.1506 114.877L61.1481 114.88L61.8953 115.544ZM57.735 130.648L57.0218 129.947L55.6892 131.303L57.5613 131.633L57.735 130.648ZM72.5836 115.542L72.7573 114.557L72.2392 114.466L71.8705 114.841L72.5836 115.542ZM74.4973 115.88L75.2104 116.581L76.5431 115.225L74.6709 114.895L74.4973 115.88ZM59.6486 130.985L59.475 131.97L59.993 132.061L60.3618 131.686L59.6486 130.985ZM67.2113 128.996L67.3712 128.089L65.4015 127.742L65.2417 128.648L67.2113 128.996ZM67.3712 128.089C67.4571 127.602 67.6306 127.197 67.8816 126.855L66.2701 125.671C65.8227 126.279 65.5366 126.976 65.4015 127.742L67.3712 128.089ZM67.879 126.859C68.1257 126.526 68.4329 126.288 68.8168 126.131L68.0618 124.279C67.3392 124.574 66.7375 125.041 66.2727 125.667L67.879 126.859ZM68.8195 126.13C69.1716 125.985 69.6121 125.934 70.1797 126.034L70.527 124.065C69.6622 123.912 68.8267 123.965 68.0591 124.28L68.8195 126.13ZM70.1797 126.034C70.7628 126.137 71.1532 126.337 71.4176 126.583L72.7799 125.118C72.172 124.553 71.3988 124.218 70.527 124.065L70.1797 126.034ZM71.4235 126.588C71.7228 126.862 71.9211 127.185 72.0298 127.575L73.9563 127.038C73.747 126.287 73.349 125.639 72.774 125.113L71.4235 126.588ZM72.031 127.579C72.1465 127.987 72.1691 128.429 72.0826 128.92L74.0522 129.267C74.1866 128.505 74.1597 127.756 73.9552 127.034L72.031 127.579ZM72.0826 128.92L71.9227 129.826L73.8923 130.174L74.0522 129.267L72.0826 128.92ZM71.9227 129.826C71.8368 130.314 71.6625 130.723 71.4083 131.072L73.0248 132.25C73.4709 131.637 73.7573 130.94 73.8923 130.174L71.9227 129.826ZM71.4057 131.076C71.1728 131.398 70.8729 131.637 70.485 131.799L71.2548 133.645C71.9753 133.344 72.5732 132.875 73.0274 132.246L71.4057 131.076ZM70.4877 131.798C70.1519 131.936 69.7193 131.988 69.1477 131.887L68.8004 133.857C69.6613 134.009 70.4926 133.96 71.2521 133.646L70.4877 131.798ZM69.1477 131.887C68.5621 131.784 68.1637 131.584 67.8903 131.337L66.5474 132.819C67.1595 133.373 67.9313 133.703 68.8004 133.857L69.1477 131.887ZM67.8962 131.342C67.5855 131.056 67.381 130.726 67.2675 130.338L65.348 130.9C65.5657 131.644 65.9686 132.286 66.5415 132.813L67.8962 131.342ZM67.2686 130.342C67.1491 129.927 67.1254 129.483 67.2113 128.996L65.2417 128.648C65.1066 129.414 65.1371 130.168 65.3468 130.896L67.2686 130.342ZM67.1138 128.044L66.9539 128.95L68.9235 129.297L69.0834 128.391L67.1138 128.044ZM66.9539 128.95C66.8335 129.633 66.8837 130.306 67.1257 130.945L68.9961 130.237C68.8917 129.961 68.8604 129.655 68.9235 129.297L66.9539 128.95ZM67.1278 130.95C67.4625 131.819 68.2115 132.264 69.055 132.413L69.4023 130.443C69.0372 130.379 69.0077 130.266 68.994 130.231L67.1278 130.95ZM69.055 132.413C69.8941 132.561 70.7391 132.387 71.3393 131.684L69.8185 130.385C69.7851 130.424 69.7597 130.438 69.7269 130.448C69.6837 130.46 69.5849 130.476 69.4023 130.443L69.055 132.413ZM71.3366 131.687C71.7826 131.169 72.0597 130.555 72.1801 129.872L70.2105 129.524C70.1474 129.882 70.0136 130.159 69.8211 130.382L71.3366 131.687ZM72.1801 129.872L72.34 128.965L70.3703 128.618L70.2105 129.524L72.1801 129.872ZM72.34 128.965C72.4589 128.291 72.4172 127.627 72.1885 126.996L70.3081 127.677C70.4054 127.945 70.435 128.251 70.3703 128.618L72.34 128.965ZM72.1905 127.001C71.8744 126.112 71.1203 125.658 70.2725 125.508L69.9252 127.478C70.1188 127.512 70.2108 127.563 70.248 127.59C70.2752 127.61 70.291 127.629 70.3061 127.671L72.1905 127.001ZM70.2725 125.508C69.4257 125.359 68.5884 125.541 67.9772 126.223L69.4667 127.558C69.5163 127.503 69.5969 127.42 69.9252 127.478L70.2725 125.508ZM67.9747 126.226C67.5174 126.74 67.2349 127.357 67.1138 128.044L69.0834 128.391C69.1458 128.037 69.2789 127.769 69.4691 127.555L67.9747 126.226ZM60.3847 117.649L60.5446 116.743L58.5749 116.395L58.4151 117.302L60.3847 117.649ZM60.5446 116.743C60.6305 116.255 60.804 115.85 61.055 115.509L59.4435 114.324C58.9961 114.933 58.71 115.629 58.5749 116.395L60.5446 116.743ZM61.0524 115.512C61.2991 115.18 61.6063 114.941 61.9902 114.785L61.2352 112.933C60.5126 113.227 59.9108 113.694 59.446 114.321L61.0524 115.512ZM61.9929 114.784C62.345 114.639 62.7855 114.588 63.3531 114.688L63.7004 112.718C62.8356 112.566 62.0001 112.618 61.2325 112.934L61.9929 114.784ZM63.3531 114.688C63.9362 114.791 64.3266 114.99 64.591 115.236L65.9533 113.772C65.3454 113.206 64.5722 112.872 63.7004 112.718L63.3531 114.688ZM64.5969 115.242C64.8962 115.516 65.0945 115.838 65.2032 116.228L67.1297 115.691C66.9204 114.94 66.5224 114.293 65.9474 113.766L64.5969 115.242ZM65.2043 116.232C65.3199 116.64 65.3425 117.083 65.256 117.573L67.2256 117.921C67.36 117.158 67.3331 116.409 67.1286 115.687L65.2043 116.232ZM65.256 117.573L65.0961 118.48L67.0657 118.827L67.2256 117.921L65.256 117.573ZM65.0961 118.48C65.0102 118.967 64.8359 119.377 64.5817 119.726L66.1982 120.903C66.6443 120.291 66.9307 119.593 67.0657 118.827L65.0961 118.48ZM64.5791 119.729C64.3462 120.052 64.0463 120.29 63.6584 120.452L64.4282 122.298C65.1487 121.998 65.7466 121.529 66.2008 120.9L64.5791 119.729ZM63.6611 120.451C63.3253 120.59 62.8927 120.641 62.3211 120.541L61.9738 122.51C62.8347 122.662 63.666 122.613 64.4255 122.299L63.6611 120.451ZM62.3211 120.541C61.7355 120.437 61.3371 120.238 61.0637 119.99L59.7208 121.472C60.3329 122.027 61.1047 122.357 61.9738 122.51L62.3211 120.541ZM61.0696 119.996C60.7589 119.71 60.5544 119.38 60.4408 118.992L58.5214 119.554C58.7391 120.297 59.142 120.94 59.7149 121.467L61.0696 119.996ZM60.442 118.996C60.3225 118.581 60.2988 118.137 60.3847 117.649L58.4151 117.302C58.28 118.068 58.3105 118.822 58.5202 119.549L60.442 118.996ZM60.2872 116.697L60.1273 117.604L62.0969 117.951L62.2568 117.045L60.2872 116.697ZM60.1273 117.604C60.0069 118.287 60.0571 118.959 60.2991 119.598L62.1695 118.89C62.0651 118.614 62.0338 118.309 62.0969 117.951L60.1273 117.604ZM60.3012 119.604C60.6359 120.472 61.3849 120.918 62.2284 121.067L62.5757 119.097C62.2105 119.033 62.1811 118.92 62.1674 118.885L60.3012 119.604ZM62.2284 121.067C63.0675 121.215 63.9125 121.04 64.5127 120.338L62.9919 119.039C62.9584 119.078 62.9331 119.092 62.9003 119.101C62.8571 119.114 62.7583 119.129 62.5757 119.097L62.2284 121.067ZM64.51 120.341C64.956 119.823 65.2331 119.208 65.3535 118.525L63.3839 118.178C63.3208 118.536 63.187 118.812 62.9945 119.036L64.51 120.341ZM65.3535 118.525L65.5134 117.619L63.5437 117.272L63.3839 118.178L65.3535 118.525ZM65.5134 117.619C65.6323 116.944 65.5906 116.28 65.3619 115.649L63.4815 116.33C63.5788 116.599 63.6084 116.905 63.5437 117.272L65.5134 117.619ZM65.3639 115.655C65.0478 114.766 64.2937 114.311 63.4459 114.162L63.0986 116.131C63.2922 116.166 63.3842 116.216 63.4214 116.244C63.4485 116.264 63.4644 116.282 63.4795 116.325L65.3639 115.655ZM63.4459 114.162C62.5991 114.013 61.7618 114.195 61.1506 114.877L62.64 116.212C62.6896 116.156 62.7703 116.074 63.0986 116.131L63.4459 114.162ZM61.1481 114.88C60.6908 115.394 60.4083 116.01 60.2872 116.697L62.2568 117.045C62.3192 116.691 62.4522 116.423 62.6425 116.209L61.1481 114.88ZM58.4481 131.349L73.2968 116.243L71.8705 114.841L57.0218 129.947L58.4481 131.349ZM72.41 116.527L74.3236 116.865L74.6709 114.895L72.7573 114.557L72.41 116.527ZM73.7841 115.179L58.9355 130.284L60.3618 131.686L75.2104 116.581L73.7841 115.179ZM59.8223 130L57.9086 129.663L57.5613 131.633L59.475 131.97L59.8223 130ZM90.6098 132.429L89.8046 131.836L89.8046 131.836L90.6098 132.429ZM87.3769 135.009L87.7532 135.936L87.7532 135.936L87.3769 135.009ZM79.5543 133.63L78.8838 134.372L78.8838 134.372L79.5543 133.63ZM77.3988 130.1L78.3583 129.818L78.3583 129.818L77.3988 130.1ZM90.1118 119.498L90.7823 118.756L90.7823 118.756L90.1118 119.498ZM92.2673 123.029L91.3079 123.31L91.3079 123.31L92.2673 123.029ZM90.3237 123.646L89.3609 123.917L89.3621 123.921L90.3237 123.646ZM88.7277 120.968L88.0576 121.71L88.0598 121.712L88.7277 120.968ZM83.079 119.972L82.706 119.044L82.7032 119.045L83.079 119.972ZM80.6631 121.943L79.8534 121.356L79.8508 121.36L80.6631 121.943ZM79.3341 129.48L78.3713 129.75L78.3725 129.755L79.3341 129.48ZM80.9301 132.159L80.26 132.901L80.2622 132.903L80.9301 132.159ZM86.5788 133.155L86.2057 132.227L86.203 132.228L86.5788 133.155ZM88.9947 131.184L88.185 130.597L88.1824 130.6L88.9947 131.184ZM91.4358 127.728C91.1368 129.424 90.5821 130.78 89.8046 131.836L91.415 133.022C92.4125 131.668 93.065 130.006 93.4054 128.076L91.4358 127.728ZM89.8046 131.836C89.0159 132.907 88.0815 133.644 87.0005 134.083L87.7532 135.936C89.2078 135.345 90.4286 134.361 91.415 133.022L89.8046 131.836ZM87.0005 134.083C85.9222 134.521 84.7476 134.638 83.4498 134.409L83.1025 136.379C84.7368 136.667 86.296 136.527 87.7532 135.936L87.0005 134.083ZM83.4498 134.409C82.1521 134.18 81.0884 133.668 80.2249 132.888L78.8838 134.372C80.0507 135.426 81.4682 136.09 83.1025 136.379L83.4498 134.409ZM80.2249 132.888C79.3593 132.106 78.7331 131.094 78.3583 129.818L76.4394 130.381C76.9082 131.977 77.719 133.319 78.8838 134.372L80.2249 132.888ZM78.3583 129.818C77.9887 128.56 77.9314 127.095 78.2304 125.4L76.2608 125.053C75.9204 126.983 75.9653 128.767 76.4394 130.381L78.3583 129.818ZM78.2304 125.4C78.5293 123.704 79.084 122.348 79.8616 121.292L78.2512 120.106C77.2537 121.461 76.6012 123.122 76.2608 125.053L78.2304 125.4ZM79.8616 121.292C80.6503 120.221 81.5847 119.485 82.6656 119.046L81.913 117.193C80.4584 117.783 79.2375 118.767 78.2512 120.106L79.8616 121.292ZM82.6656 119.046C83.744 118.608 84.9186 118.49 86.2163 118.719L86.5636 116.75C84.9294 116.461 83.3702 116.601 81.913 117.193L82.6656 119.046ZM86.2163 118.719C87.5141 118.948 88.5778 119.46 89.4413 120.24L90.7823 118.756C89.6154 117.702 88.1979 117.038 86.5636 116.75L86.2163 118.719ZM89.4413 120.24C90.3069 121.023 90.933 122.034 91.3079 123.31L93.2268 122.747C92.758 121.151 91.9471 119.809 90.7823 118.756L89.4413 120.24ZM91.3079 123.31C91.6774 124.568 91.7347 126.033 91.4358 127.728L93.4054 128.076C93.7458 126.145 93.7009 124.361 93.2268 122.747L91.3079 123.31ZM91.391 127.72C91.672 126.127 91.6551 124.667 91.2853 123.372L89.3621 123.921C89.6272 124.849 89.6653 125.99 89.4214 127.373L91.391 127.72ZM91.2865 123.376C90.9308 122.109 90.3082 121.043 89.3955 120.224L88.0598 121.712C88.6515 122.243 89.0929 122.962 89.3609 123.917L91.2865 123.376ZM89.3978 120.226C88.5045 119.419 87.4362 118.911 86.2203 118.697L85.873 120.666C86.7386 120.819 87.4576 121.169 88.0576 121.71L89.3978 120.226ZM86.2203 118.697C85.0044 118.482 83.8251 118.594 82.706 119.044L83.452 120.9C84.2083 120.596 85.0074 120.514 85.873 120.666L86.2203 118.697ZM82.7032 119.045C81.5728 119.504 80.6251 120.292 79.8534 121.356L81.4728 122.53C82.0582 121.722 82.7211 121.196 83.4548 120.899L82.7032 119.045ZM79.8508 121.36C79.0676 122.45 78.5559 123.816 78.2752 125.408L80.2448 125.755C80.4889 124.37 80.9126 123.31 81.4753 122.526L79.8508 121.36ZM78.2752 125.408C77.9944 127 78.0083 128.458 78.3713 129.75L80.2968 129.21C80.0361 128.281 80.0006 127.14 80.2448 125.755L78.2752 125.408ZM78.3725 129.755C78.7335 131.019 79.3546 132.084 80.26 132.901L81.6002 131.417C81.0125 130.886 80.5695 130.165 80.2956 129.206L78.3725 129.755ZM80.2622 132.903C81.16 133.709 82.23 134.217 83.4459 134.431L83.7932 132.462C82.9276 132.309 82.2046 131.959 81.598 131.415L80.2622 132.903ZM83.4459 134.431C84.6618 134.646 85.8394 134.534 86.9546 134.082L86.203 132.228C85.454 132.532 84.6588 132.614 83.7932 132.462L83.4459 134.431ZM86.9518 134.083C88.0896 133.625 89.0394 132.836 89.807 131.767L88.1824 130.6C87.6041 131.406 86.9433 131.93 86.2057 132.227L86.9518 134.083ZM89.8044 131.77C90.5948 130.68 91.11 129.314 91.391 127.72L89.4214 127.373C89.1775 128.756 88.7517 129.815 88.185 130.597L89.8044 131.77ZM94.4051 137.114L93.4203 136.94L93.2466 137.925L94.2314 138.099L94.4051 137.114ZM97.436 119.924L97.6097 118.94L96.6249 118.766L96.4512 119.751L97.436 119.924ZM107.743 121.742L108.728 121.915L108.901 120.931L107.917 120.757L107.743 121.742ZM107.417 123.588L107.244 124.573L108.229 124.747L108.402 123.762L107.417 123.588ZM99.192 122.138L99.3656 121.153L98.3808 120.98L98.2072 121.964L99.192 122.138ZM98.1678 127.946L97.183 127.772L97.0094 128.757L97.9942 128.931L98.1678 127.946ZM105.621 129.26L106.606 129.434L106.78 128.449L105.795 128.275L105.621 129.26ZM105.295 131.107L105.122 132.092L106.107 132.265L106.28 131.28L105.295 131.107ZM97.8423 129.793L98.0159 128.808L97.0311 128.634L96.8574 129.619L97.8423 129.793ZM96.4866 137.481L96.313 138.466L97.2978 138.639L97.4714 137.654L96.4866 137.481ZM95.3899 137.287L98.4208 120.098L96.4512 119.751L93.4203 136.94L95.3899 137.287ZM97.2624 120.909L107.569 122.727L107.917 120.757L97.6097 118.94L97.2624 120.909ZM106.758 121.568L106.433 123.415L108.402 123.762L108.728 121.915L106.758 121.568ZM107.591 122.604L99.3656 121.153L99.0183 123.123L107.244 124.573L107.591 122.604ZM98.2072 121.964L97.183 127.772L99.1527 128.12L100.177 122.312L98.2072 121.964ZM97.9942 128.931L105.447 130.245L105.795 128.275L98.3415 126.961L97.9942 128.931ZM104.636 129.087L104.311 130.933L106.28 131.28L106.606 129.434L104.636 129.087ZM105.469 130.122L98.0159 128.808L97.6686 130.777L105.122 132.092L105.469 130.122ZM96.8574 129.619L95.5018 137.307L97.4714 137.654L98.8271 129.966L96.8574 129.619ZM96.6603 136.496L94.5787 136.129L94.2314 138.099L96.313 138.466L96.6603 136.496ZM108.277 139.56L107.292 139.386L107.119 140.371L108.103 140.545L108.277 139.56ZM111.308 122.37L111.482 121.386L110.497 121.212L110.323 122.197L111.308 122.37ZM121.615 124.188L122.6 124.361L122.773 123.377L121.789 123.203L121.615 124.188ZM121.289 126.034L121.116 127.019L122.1 127.193L122.274 126.208L121.289 126.034ZM113.064 124.584L113.238 123.599L112.253 123.426L112.079 124.41L113.064 124.584ZM112.04 130.392L111.055 130.218L110.881 131.203L111.866 131.377L112.04 130.392ZM119.493 131.706L120.478 131.88L120.651 130.895L119.667 130.721L119.493 131.706ZM119.167 133.553L118.994 134.538L119.979 134.711L120.152 133.726L119.167 133.553ZM111.714 132.239L111.888 131.254L110.903 131.08L110.729 132.065L111.714 132.239ZM110.359 139.927L110.185 140.912L111.17 141.085L111.343 140.1L110.359 139.927ZM109.262 139.733L112.293 122.544L110.323 122.197L107.292 139.386L109.262 139.733ZM111.134 123.355L121.441 125.173L121.789 123.203L111.482 121.386L111.134 123.355ZM120.63 124.014L120.304 125.861L122.274 126.208L122.6 124.361L120.63 124.014ZM121.463 125.05L113.238 123.599L112.89 125.569L121.116 127.019L121.463 125.05ZM112.079 124.41L111.055 130.218L113.025 130.566L114.049 124.758L112.079 124.41ZM111.866 131.377L119.319 132.691L119.667 130.721L112.213 129.407L111.866 131.377ZM118.508 131.533L118.183 133.379L120.152 133.726L120.478 131.88L118.508 131.533ZM119.341 132.568L111.888 131.254L111.541 133.223L118.994 134.538L119.341 132.568ZM110.729 132.065L109.374 139.753L111.343 140.1L112.699 132.412L110.729 132.065ZM110.532 138.942L108.451 138.575L108.103 140.545L110.185 140.912L110.532 138.942Z" fill="#222222"/>
<defs>
<linearGradient id="paint0_linear_2880_7" x1="24.9431" y1="75.0943" x2="139.901" y2="95.0819" gradientUnits="userSpaceOnUse">
<stop stop-color="#D9863A"/>
<stop offset="1" stop-color="#FFD90F"/>
</linearGradient>
<linearGradient id="paint1_linear_2880_7" x1="24.9431" y1="75.0943" x2="139.901" y2="95.0819" gradientUnits="userSpaceOnUse">
<stop stop-color="#D9863A"/>
<stop offset="1" stop-color="#FFD90F"/>
</linearGradient>
</defs>
</svg>
