<svg width="87" height="87" viewBox="0 0 87 87" fill="none" xmlns="http://www.w3.org/2000/svg">
<g clip-path="url(#clip0_1965_221)">
<path d="M63.4205 3.32324C59.3397 3.38672 55.3479 4.52589 51.8481 6.62572C48.3484 8.72555 45.4648 11.7117 43.4884 15.2825C41.512 11.7117 38.6283 8.72555 35.1286 6.62572C31.6289 4.52589 27.637 3.38672 23.5562 3.32324C17.0508 3.60588 10.9218 6.4517 6.50797 11.239C2.09418 16.0262 -0.245533 22.3658 -3.29874e-06 28.8727C-3.29874e-06 53.4255 39.7049 81.7835 41.3937 82.9867L43.4884 84.4689L45.5831 82.9867C47.2719 81.7908 86.9767 53.4255 86.9767 28.8727C87.2223 22.3658 84.8826 16.0262 80.4688 11.239C76.055 6.4517 69.9259 3.60588 63.4205 3.32324ZM43.4884 75.5466C31.6994 66.7402 7.24806 45.1047 7.24806 28.8727C7.00032 24.2872 8.57578 19.7899 11.6308 16.3614C14.6859 12.933 18.9726 10.8516 23.5562 10.5713C28.1398 10.8516 32.4265 12.933 35.4816 16.3614C38.5366 19.7899 40.1121 24.2872 39.8643 28.8727H47.1124C46.8647 24.2872 48.4401 19.7899 51.4952 16.3614C54.5502 12.933 58.837 10.8516 63.4205 10.5713C68.0041 10.8516 72.2909 12.933 75.3459 16.3614C78.401 19.7899 79.9764 24.2872 79.7287 28.8727C79.7287 45.1119 55.2773 66.7402 43.4884 75.5466Z" fill="black"/>
</g>
<defs>
<clipPath id="clip0_1965_221">
<rect width="86.9767" height="86.9767" fill="white"/>
</clipPath>
</defs>
</svg>
