<svg width="846" height="51" viewBox="0 0 846 51" fill="none" xmlns="http://www.w3.org/2000/svg">
<path d="M70.064 44V41.72H73.928V29.432H70.76V27.68C72.416 27.368 73.592 26.96 74.6 26.312H76.688V41.72H80.144V44H70.064Z" fill="#222222"/>
<path d="M3.696 5.504H8.976C8.976 8.4 9.344 14.336 15.44 17.936C15.104 18.192 14.496 18.832 14.24 19.2C10.608 17.008 8.896 13.744 8.112 10.8C6.928 14.656 4.928 17.456 1.968 19.232C1.68 18.928 0.992 18.304 0.592 18.032C4.032 16.256 5.968 13.104 6.896 8.768L7.712 8.912C7.6 8.24 7.536 7.584 7.504 7.008H3.696V5.504ZM25.232 7.968H31.792C31.792 7.968 31.776 8.496 31.76 8.704C31.408 15.184 31.104 17.552 30.4 18.368C29.968 18.88 29.552 19.04 28.928 19.104C28.352 19.168 27.328 19.152 26.384 19.104C26.352 18.672 26.144 18.016 25.856 17.568C26.912 17.664 27.888 17.664 28.288 17.664C28.64 17.664 28.832 17.616 29.024 17.424C29.568 16.912 29.904 14.72 30.176 9.488H25.168C24.928 12.784 23.84 16.656 19.296 19.344C19.056 18.976 18.496 18.416 18.144 18.144C22.304 15.76 23.344 12.368 23.584 9.488H18.624V7.968H23.664V7.568V4.608H25.232V7.568V7.968ZM47.696 16.88V8.32H49.152V19.216H47.696V18.288H37.456V19.248H36V8.32H37.456V16.88H47.696ZM45.04 11.504V9.76H43.152V11.504H45.04ZM45.04 14.448V12.688H43.152V14.448H45.04ZM39.984 12.688V14.448H41.856V12.688H39.984ZM39.984 9.76V11.504H41.856V9.76H39.984ZM35.504 5.584H49.616V6.96H43.248V8.528H46.336V15.68H38.736V8.528H41.76V6.96H35.504V5.584ZM64.672 17.072V10.096H62.576V17.072H64.672ZM54.928 10.096V17.072H56.928V10.096H54.928ZM61.232 11.6V10.096H58.256V11.6H61.232ZM58.256 15.488V17.072H61.232V15.488H58.256ZM61.232 14.304V12.784H58.256V14.304H61.232ZM66.944 6.976H60.496C60.304 7.568 60.112 8.192 59.952 8.736H66.192V19.28H64.672V18.448H54.928V19.28H53.488V8.736H58.416C58.544 8.192 58.672 7.552 58.768 6.976H52.8V5.568H66.944V6.976Z" fill="#A5A5A5"/>
<path d="M787.024 15.92V17.376H788.912V15.92H787.024ZM784.176 10.224V11.232C785.456 10.288 786.48 8.96 787.232 7.392H785.76V8.912H784.496V6.944H782C781.824 8.064 781.616 9.184 781.344 10.224H784.176ZM782.912 16.032V11.52H781.184V16.032H782.912ZM788.912 12.24V10.864H787.024V12.24H788.912ZM788.912 14.8V13.36H787.024V14.8H788.912ZM793.344 17.376V18.608H787.024V19.264H785.6V11.984C785.392 12.176 785.184 12.352 784.976 12.512C784.832 12.288 784.464 11.888 784.176 11.6V17.328H781.184V18.576H779.968V13.968C779.744 14.4 779.504 14.8 779.232 15.168C779.072 14.832 778.656 14.096 778.4 13.76C779.552 12.128 780.192 9.632 780.576 6.944H778.896V5.6H784.528V6.128H787.76C787.936 5.616 788.096 5.104 788.224 4.56L789.648 4.832C789.536 5.28 789.392 5.712 789.248 6.128H793.264V8.912H791.92V7.392H788.768C788.432 8.192 788.032 8.928 787.584 9.616H789.248C789.52 9.04 789.76 8.352 789.904 7.84L791.28 8.144C791.056 8.64 790.816 9.152 790.576 9.616H792.896V10.864H790.288V12.24H792.608V13.36H790.288V14.8H792.608V15.92H790.288V17.376H793.344ZM802.192 8.192L802.896 7.168C803.456 7.344 804.032 7.568 804.624 7.824C804.752 7.392 804.848 6.944 804.928 6.496H802.368V5.216H810.112C810.112 5.216 810.112 5.632 810.096 5.808C809.936 9.504 809.792 10.928 809.376 11.408C809.104 11.76 808.816 11.888 808.368 11.936C808 11.984 807.296 11.984 806.576 11.952C806.56 11.536 806.416 10.96 806.192 10.592C806.848 10.656 807.44 10.656 807.68 10.656C807.92 10.672 808.064 10.64 808.192 10.48C808.4 10.208 808.56 9.184 808.672 6.496H806.272C806.176 7.136 806.032 7.776 805.824 8.384C806.48 8.704 807.072 9.04 807.504 9.328L806.784 10.48C806.4 10.192 805.888 9.888 805.328 9.584C804.752 10.672 803.872 11.648 802.496 12.352C802.336 12.016 801.952 11.52 801.632 11.28C802.864 10.72 803.632 9.904 804.128 8.976C803.488 8.672 802.816 8.4 802.192 8.192ZM804.288 12.4L805.152 11.536C806.16 12.064 807.408 12.912 807.984 13.568L807.056 14.544C806.496 13.888 805.296 12.992 804.288 12.4ZM801.136 5.104V6.272H796.688V5.104H801.136ZM801.632 7.216V8.4H795.92V7.216H801.632ZM801.184 9.392V10.544H796.624V9.392H801.184ZM796.624 12.688V11.52H801.184V12.688H796.624ZM799.936 14.88H797.856V17.184H799.936V14.88ZM801.2 13.68V18.384H797.856V19.056H796.608V13.68H801.2ZM802.32 18.4L801.232 17.712C801.936 16.928 802.256 15.568 802.416 14.272L803.616 14.576C803.456 15.984 803.136 17.488 802.32 18.4ZM805.792 17.84H806.976C807.36 17.84 807.424 17.632 807.472 16.08C807.728 16.32 808.32 16.544 808.704 16.64C808.56 18.624 808.192 19.136 807.136 19.136H805.568C804.272 19.136 803.968 18.72 803.968 17.392V13.696H805.328V17.376C805.328 17.776 805.392 17.84 805.792 17.84ZM807.872 14.432L809.088 13.952C809.936 15.136 810.64 16.704 810.864 17.792L809.552 18.336C809.36 17.264 808.672 15.632 807.872 14.432ZM825.696 16.88V8.32H827.152V19.216H825.696V18.288H815.456V19.248H814V8.32H815.456V16.88H825.696ZM823.04 11.504V9.76H821.152V11.504H823.04ZM823.04 14.448V12.688H821.152V14.448H823.04ZM817.984 12.688V14.448H819.856V12.688H817.984ZM817.984 9.76V11.504H819.856V9.76H817.984ZM813.504 5.584H827.616V6.96H821.248V8.528H824.336V15.68H816.736V8.528H819.76V6.96H813.504V5.584ZM842.672 17.072V10.096H840.576V17.072H842.672ZM832.928 10.096V17.072H834.928V10.096H832.928ZM839.232 11.6V10.096H836.256V11.6H839.232ZM836.256 15.488V17.072H839.232V15.488H836.256ZM839.232 14.304V12.784H836.256V14.304H839.232ZM844.944 6.976H838.496C838.304 7.568 838.112 8.192 837.952 8.736H844.192V19.28H842.672V18.448H832.928V19.28H831.488V8.736H836.416C836.544 8.192 836.672 7.552 836.768 6.976H830.8V5.568H844.944V6.976Z" fill="#A5A5A5"/>
<path d="M243.032 44V42.392C248.264 37.784 250.928 34.352 250.928 31.448C250.928 29.552 249.92 28.232 247.952 28.232C246.56 28.232 245.408 29.096 244.472 30.176L242.888 28.664C244.424 27.008 245.984 26.024 248.288 26.024C251.528 26.024 253.616 28.112 253.616 31.328C253.616 34.712 250.88 38.24 247.136 41.84C248.048 41.744 249.176 41.648 250.04 41.648H254.456V44H243.032Z" fill="#222222"/>
<path d="M422.432 44.312C419.648 44.312 417.848 43.208 416.672 41.888L418.016 40.112C419.048 41.168 420.368 42.056 422.192 42.056C424.184 42.056 425.552 40.952 425.552 39.104C425.552 37.16 424.304 35.888 420.32 35.888V33.848C423.8 33.848 424.952 32.528 424.952 30.752C424.952 29.192 423.92 28.232 422.24 28.208C420.872 28.232 419.72 28.88 418.712 29.864L417.272 28.136C418.664 26.888 420.296 26 422.336 26C425.504 26 427.736 27.656 427.736 30.56C427.736 32.6 426.56 34.016 424.688 34.712V34.832C426.728 35.336 428.336 36.872 428.336 39.248C428.336 42.44 425.672 44.312 422.432 44.312Z" fill="#222222"/>
<path d="M593.264 37.112H598.136V32.48C598.136 31.52 598.208 30.032 598.256 29.048H598.16C597.728 29.96 597.248 30.872 596.744 31.784L593.264 37.112ZM598.136 44V39.248H590.48V37.4L597.512 26.312H600.728V37.112H602.96V39.248H600.728V44H598.136Z" fill="#222222"/>
<path d="M770.432 44.336C767.648 44.336 765.896 43.208 764.624 41.96L765.968 40.16C766.952 41.168 768.248 42.056 770.096 42.056C772.088 42.056 773.576 40.64 773.576 38.288C773.576 35.96 772.232 34.616 770.216 34.616C769.112 34.616 768.44 34.928 767.408 35.6L766.04 34.736L766.568 26.336H775.544V28.688H768.992L768.584 33.2C769.328 32.816 770.048 32.6 771.008 32.6C773.96 32.6 776.384 34.328 776.384 38.216C776.384 42.104 773.504 44.336 770.432 44.336Z" fill="#ED9C51"/>
<circle cx="140.5" cy="33.5" r="2.5" fill="#A5A5A5"/>
<circle cx="161.5" cy="33.5" r="2.5" fill="#A5A5A5"/>
<circle cx="182.5" cy="33.5" r="2.5" fill="#A5A5A5"/>
<circle cx="314.5" cy="33.5" r="2.5" fill="#A5A5A5"/>
<circle cx="335.5" cy="33.5" r="2.5" fill="#A5A5A5"/>
<circle cx="356.5" cy="33.5" r="2.5" fill="#A5A5A5"/>
<circle cx="488.5" cy="33.5" r="2.5" fill="#A5A5A5"/>
<circle cx="509.5" cy="33.5" r="2.5" fill="#A5A5A5"/>
<circle cx="530.5" cy="33.5" r="2.5" fill="#A5A5A5"/>
<circle cx="662.5" cy="33.5" r="2.5" fill="#A5A5A5"/>
<circle cx="683.5" cy="33.5" r="2.5" fill="#A5A5A5"/>
<circle cx="704.5" cy="33.5" r="2.5" fill="#A5A5A5"/>
</svg>
