<svg width="87" height="78" viewBox="0 0 87 78" fill="none" xmlns="http://www.w3.org/2000/svg">
<path d="M63.4295 0C59.3492 0.061014 55.3579 1.15603 51.8586 3.17445C48.3594 5.19288 45.4761 8.06325 43.5 11.4957C41.5239 8.06325 38.6406 5.19288 35.1414 3.17445C31.6421 1.15603 27.6508 0.061014 23.5705 0C17.0661 0.271684 10.9378 3.00718 6.52463 7.60887C2.11144 12.2105 -0.227955 18.3044 0.0175419 24.559C0.0175419 48.16 39.717 75.4187 41.4056 76.5752L43.5 78L45.5944 76.5752C47.283 75.4257 86.9825 48.16 86.9825 24.559C87.228 18.3044 84.8886 12.2105 80.4754 7.60887C76.0622 3.00718 69.9339 0.271684 63.4295 0Z" fill="#ED9C51"/>
</svg>
