<svg width="318" height="360" viewBox="0 0 318 360" fill="none" xmlns="http://www.w3.org/2000/svg">
<path d="M47 142V225.978H53.5036V188.775H92.6193V181.296H52.4001" stroke="#222222" stroke-width="2.5" stroke-linecap="round" stroke-linejoin="round"/>
<path d="M51.3911 142.705H92.9721" stroke="#222222" stroke-width="2.5" stroke-linecap="round" stroke-linejoin="round"/>
<path d="M241.897 155.241V225.979" stroke="#222222" stroke-width="2.5" stroke-linecap="round" stroke-linejoin="round"/>
<path d="M245.418 156.109C245.418 156.109 283.712 148.184 286.999 176.616" stroke="#222222" stroke-width="2.5" stroke-linecap="round" stroke-linejoin="round"/>
<path d="M287 181.459C287 181.459 286.789 204.152 250.467 199.755C250.467 199.755 246.945 197.991 247.603 195.357C247.603 195.357 247.814 192.041 251.57 192.723C251.57 192.723 267.419 194.934 275.566 189.854" stroke="#222222" stroke-width="2.5" stroke-linecap="round" stroke-linejoin="round"/>
<path d="M137.862 216.195C150.427 216.195 160.613 205.993 160.613 193.408C160.613 180.822 150.427 170.62 137.862 170.62C125.297 170.62 115.111 180.822 115.111 193.408C115.111 205.993 125.297 216.195 137.862 216.195Z" stroke="#2D8F99" stroke-width="2.5" stroke-miterlimit="10"/>
<path d="M137.862 205.706C144.644 205.706 150.142 200.199 150.142 193.407C150.142 186.614 144.644 181.107 137.862 181.107C131.081 181.107 125.583 186.614 125.583 193.407C125.583 200.199 131.081 205.706 137.862 205.706Z" stroke="#23727B" stroke-width="2.5" stroke-miterlimit="10"/>
<path d="M194.281 160.859C182.19 160.859 171.671 167.491 166.06 177.297C160.448 167.491 149.93 160.859 137.838 160.859C119.877 160.859 105.32 175.44 105.32 193.43C105.32 211.42 119.877 226 137.838 226C149.93 226 160.448 219.369 166.06 209.562C171.671 219.369 182.19 226 194.281 226C212.243 226 226.799 211.42 226.799 193.43C226.799 175.44 212.243 160.859 194.281 160.859Z" stroke="#35B4C7" stroke-width="2.5" stroke-miterlimit="10"/>
<path d="M194.282 216.195C206.847 216.195 217.033 205.993 217.033 193.408C217.033 180.822 206.847 170.62 194.282 170.62C181.717 170.62 171.531 180.822 171.531 193.408C171.531 205.993 181.717 216.195 194.282 216.195Z" stroke="#2D8F99" stroke-width="2.5" stroke-miterlimit="10"/>
<path d="M194.282 205.706C201.064 205.706 206.562 200.199 206.562 193.407C206.562 186.614 201.064 181.107 194.282 181.107C187.501 181.107 182.003 186.614 182.003 193.407C182.003 200.199 187.501 205.706 194.282 205.706Z" stroke="#23727B" stroke-width="2.5" stroke-miterlimit="10"/>
<path d="M199.776 155.828C202.214 155.828 204.19 153.848 204.19 151.406C204.19 148.965 202.214 146.985 199.776 146.985C197.338 146.985 195.362 148.965 195.362 151.406C195.362 153.848 197.338 155.828 199.776 155.828Z" fill="#222222"/>
<path d="M131.196 155.828C133.634 155.828 135.61 153.848 135.61 151.406C135.61 148.965 133.634 146.985 131.196 146.985C128.758 146.985 126.782 148.965 126.782 151.406C126.782 153.848 128.758 155.828 131.196 155.828Z" fill="#222222"/>
<mask id="path-13-inside-1_1979_612" fill="white">
<path fill-rule="evenodd" clip-rule="evenodd" d="M70.7505 109.119C106.512 105.99 134.161 88.1073 132.504 69.1762C130.848 50.245 100.515 37.4346 64.7527 40.5634C28.9908 43.6922 1.34267 61.5753 2.99893 80.5064C3.89296 90.7253 13.1427 99.1607 27.0917 104.268C27.9551 115.69 36.4016 121.499 40.5633 122.985C35.6098 118.268 37.5645 110.812 39.1854 107.616C48.6739 109.504 59.4408 110.109 70.7505 109.119Z"/>
</mask>
<path fill-rule="evenodd" clip-rule="evenodd" d="M70.7505 109.119C106.512 105.99 134.161 88.1073 132.504 69.1762C130.848 50.245 100.515 37.4346 64.7527 40.5634C28.9908 43.6922 1.34267 61.5753 2.99893 80.5064C3.89296 90.7253 13.1427 99.1607 27.0917 104.268C27.9551 115.69 36.4016 121.499 40.5633 122.985C35.6098 118.268 37.5645 110.812 39.1854 107.616C48.6739 109.504 59.4408 110.109 70.7505 109.119Z" fill="white"/>
<path d="M27.0917 104.268L28.0889 104.193L28.0403 103.551L27.4356 103.329L27.0917 104.268ZM40.5633 122.985L40.2272 123.927L41.253 122.261L40.5633 122.985ZM39.1854 107.616L39.3806 106.635L38.6366 106.487L38.2935 107.163L39.1854 107.616ZM131.508 69.2633C132.288 78.178 126.171 87.0832 115.116 94.2339C104.103 101.357 88.415 106.57 70.6634 108.123L70.8377 110.115C88.8479 108.54 104.865 103.247 116.202 95.9132C127.497 88.6074 134.377 79.1055 133.5 69.089L131.508 69.2633ZM64.8398 41.5596C82.5915 40.0065 98.9466 42.4159 111.029 47.5185C123.158 52.6409 130.728 60.3486 131.508 69.2633L133.5 69.089C132.624 59.0726 124.199 50.9095 111.807 45.6761C99.3683 40.4229 82.6758 37.9915 64.6655 39.5672L64.8398 41.5596ZM3.99512 80.4193C3.21519 71.5046 9.33175 62.5994 20.3871 55.4487C31.3999 48.3255 47.0882 43.1127 64.8398 41.5596L64.6655 39.5672C46.6552 41.1429 30.6385 46.436 19.3009 53.7693C8.00576 61.0751 1.12641 70.5771 2.00273 80.5936L3.99512 80.4193ZM27.4356 103.329C13.6041 98.2647 4.83727 90.045 3.99512 80.4193L2.00273 80.5936C2.94865 91.4055 12.6813 100.057 26.7479 105.207L27.4356 103.329ZM26.0946 104.344C26.9964 116.275 35.8163 122.352 40.2272 123.927L40.8995 122.043C36.9868 120.647 28.9137 115.105 28.0889 104.193L26.0946 104.344ZM41.253 122.261C39.0394 120.153 38.3414 117.419 38.4086 114.755C38.4763 112.076 39.3216 109.558 40.0772 108.068L38.2935 107.163C37.4283 108.87 36.4858 111.678 36.4093 114.705C36.3324 117.747 37.1337 121.1 39.8737 123.709L41.253 122.261ZM70.6634 108.123C59.4414 109.105 48.7699 108.503 39.3806 106.635L38.9902 108.596C48.5779 110.504 59.4401 111.113 70.8377 110.115L70.6634 108.123Z" fill="#222222" mask="url(#path-13-inside-1_1979_612)"/>
<mask id="path-15-inside-2_1979_612" fill="white">
<path fill-rule="evenodd" clip-rule="evenodd" d="M246.727 252.805C282.489 249.676 312.823 262.486 314.479 281.417C316.135 300.349 288.487 318.232 252.725 321.36C216.963 324.489 186.63 311.679 184.974 292.748C184.079 282.529 191.724 272.615 204.574 265.163C203.441 253.765 210.75 246.577 214.591 244.391C210.532 249.897 213.752 256.901 215.903 259.767C224.92 256.259 235.418 253.794 246.727 252.805Z"/>
</mask>
<path fill-rule="evenodd" clip-rule="evenodd" d="M246.727 252.805C282.489 249.676 312.823 262.486 314.479 281.417C316.135 300.349 288.487 318.232 252.725 321.36C216.963 324.489 186.63 311.679 184.974 292.748C184.079 282.529 191.724 272.615 204.574 265.163C203.441 253.765 210.75 246.577 214.591 244.391C210.532 249.897 213.752 256.901 215.903 259.767C224.92 256.259 235.418 253.794 246.727 252.805Z" fill="white"/>
<path d="M204.574 265.163L205.569 265.064L205.633 265.705L205.076 266.028L204.574 265.163ZM214.591 244.391L214.096 243.522L215.396 244.984L214.591 244.391ZM215.903 259.767L216.266 260.699L215.559 260.973L215.104 260.367L215.903 259.767ZM313.483 281.505C312.703 272.59 305.133 264.882 293.004 259.76C280.921 254.657 264.566 252.248 246.814 253.801L246.64 251.809C264.65 250.233 281.343 252.664 293.782 257.918C306.174 263.151 314.599 271.314 315.475 281.33L313.483 281.505ZM252.638 320.364C270.39 318.811 286.078 313.598 297.091 306.475C308.146 299.324 314.263 290.419 313.483 281.505L315.475 281.33C316.351 291.347 309.472 300.849 298.177 308.154C286.839 315.488 270.822 320.781 252.812 322.356L252.638 320.364ZM185.97 292.661C186.75 301.575 194.32 309.283 206.449 314.405C218.531 319.508 234.886 321.917 252.638 320.364L252.812 322.356C234.802 323.932 218.109 321.501 205.671 316.248C193.278 311.014 184.854 302.851 183.977 292.835L185.97 292.661ZM205.076 266.028C192.334 273.418 185.128 283.035 185.97 292.661L183.977 292.835C183.031 282.023 191.114 271.813 204.072 264.298L205.076 266.028ZM203.579 265.262C202.395 253.355 210.026 245.838 214.096 243.522L215.086 245.26C211.475 247.315 204.486 254.174 205.569 265.064L203.579 265.262ZM215.396 244.984C213.582 247.445 213.369 250.259 213.898 252.87C214.43 255.497 215.7 257.83 216.703 259.166L215.104 260.367C213.955 258.837 212.539 256.235 211.938 253.267C211.334 250.284 211.541 246.843 213.786 243.797L215.396 244.984ZM246.814 253.801C235.593 254.783 225.188 257.228 216.266 260.699L215.541 258.835C224.651 255.291 235.243 252.806 246.64 251.809L246.814 253.801Z" fill="#222222" mask="url(#path-15-inside-2_1979_612)"/>
<mask id="path-17-inside-3_1979_612" fill="white">
<path fill-rule="evenodd" clip-rule="evenodd" d="M70.7505 252.805C106.512 255.934 134.16 273.817 132.504 292.748C130.848 311.679 100.515 324.489 64.7527 321.36C28.9908 318.232 1.34266 300.349 2.99892 281.418C3.89294 271.199 13.1426 262.763 27.0914 257.656C27.9546 246.234 36.4012 240.424 40.5631 238.939C35.6094 243.656 37.5643 251.112 39.1853 254.308C48.6738 252.42 59.4407 251.815 70.7505 252.805Z"/>
</mask>
<path fill-rule="evenodd" clip-rule="evenodd" d="M70.7505 252.805C106.512 255.934 134.16 273.817 132.504 292.748C130.848 311.679 100.515 324.489 64.7527 321.36C28.9908 318.232 1.34266 300.349 2.99892 281.418C3.89294 271.199 13.1426 262.763 27.0914 257.656C27.9546 246.234 36.4012 240.424 40.5631 238.939C35.6094 243.656 37.5643 251.112 39.1853 254.308C48.6738 252.42 59.4407 251.815 70.7505 252.805Z" fill="white"/>
<path d="M27.0914 257.656L28.0886 257.731L28.04 258.373L27.4353 258.595L27.0914 257.656ZM40.5631 238.939L40.2269 237.997L41.2527 239.663L40.5631 238.939ZM39.1853 254.308L39.3805 255.289L38.6365 255.437L38.2934 254.761L39.1853 254.308ZM131.508 292.661C132.288 283.746 126.171 274.841 115.116 267.69C104.103 260.567 88.415 255.354 70.6633 253.801L70.8376 251.809C88.8479 253.384 104.865 258.678 116.202 266.011C127.497 273.317 134.377 282.819 133.5 292.835L131.508 292.661ZM64.8398 320.364C82.5915 321.917 98.9466 319.508 111.029 314.405C123.158 309.283 130.728 301.575 131.508 292.661L133.5 292.835C132.624 302.851 124.199 311.014 111.807 316.248C99.3683 321.501 82.6758 323.932 64.6655 322.357L64.8398 320.364ZM3.99511 281.505C3.21518 290.419 9.33174 299.325 20.3871 306.475C31.3999 313.598 47.0882 318.811 64.8398 320.364L64.6655 322.357C46.6552 320.781 30.6385 315.488 19.3009 308.155C8.00576 300.849 1.1264 291.347 2.00272 281.33L3.99511 281.505ZM27.4353 258.595C13.604 263.659 4.83725 271.879 3.99511 281.505L2.00272 281.33C2.94863 270.519 12.6812 261.867 26.7476 256.717L27.4353 258.595ZM26.0943 257.58C26.9959 245.649 35.8159 239.572 40.2269 237.997L40.8992 239.881C36.9865 241.277 28.9132 246.819 28.0886 257.731L26.0943 257.58ZM41.2527 239.663C39.0391 241.771 38.341 244.505 38.4084 247.169C38.4761 249.848 39.3214 252.366 40.0771 253.856L38.2934 254.761C37.4282 253.055 36.4855 250.246 36.409 247.219C36.3321 244.177 37.1334 240.824 39.8734 238.215L41.2527 239.663ZM70.6633 253.801C59.4413 252.819 48.7698 253.421 39.3805 255.289L38.9901 253.328C48.5778 251.42 59.4401 250.812 70.8376 251.809L70.6633 253.801Z" fill="#222222" mask="url(#path-17-inside-3_1979_612)"/>
<mask id="path-19-inside-4_1979_612" fill="white">
<path fill-rule="evenodd" clip-rule="evenodd" d="M235 108.882C199.101 108.882 170 93.4764 170 74.4731C170 55.4697 199.101 40.0645 235 40.0645C270.899 40.0645 300 55.4697 300 74.4731C300 84.7307 291.521 93.94 278.071 100.244C278.207 111.698 270.298 118.222 266.281 120.065C270.805 114.933 268.207 107.675 266.314 104.633C257.026 107.341 246.353 108.882 235 108.882Z"/>
</mask>
<path fill-rule="evenodd" clip-rule="evenodd" d="M235 108.882C199.101 108.882 170 93.4764 170 74.4731C170 55.4697 199.101 40.0645 235 40.0645C270.899 40.0645 300 55.4697 300 74.4731C300 84.7307 291.521 93.94 278.071 100.244C278.207 111.698 270.298 118.222 266.281 120.065C270.805 114.933 268.207 107.675 266.314 104.633C257.026 107.341 246.353 108.882 235 108.882Z" fill="white"/>
<path d="M278.071 100.244L277.071 100.256L277.063 99.6118L277.646 99.3385L278.071 100.244ZM266.281 120.065L266.698 120.973L265.531 119.403L266.281 120.065ZM266.314 104.633L266.034 103.673L266.762 103.46L267.163 104.104L266.314 104.633ZM171 74.4731C171 83.4217 177.869 91.7599 189.506 97.9198C201.098 104.056 217.181 107.882 235 107.882V109.882C216.921 109.882 200.504 106.005 188.57 99.6874C176.681 93.3939 169 84.5277 169 74.4731H171ZM235 41.0645C217.181 41.0645 201.098 44.8901 189.506 51.0263C177.869 57.1862 171 65.5244 171 74.4731H169C169 64.4184 176.681 55.5522 188.57 49.2587C200.504 42.9415 216.921 39.0645 235 39.0645V41.0645ZM299 74.4731C299 65.5244 292.131 57.1862 280.494 51.0263C268.902 44.8901 252.819 41.0645 235 41.0645V39.0645C253.079 39.0645 269.496 42.9415 281.43 49.2587C293.319 55.5522 301 64.4184 301 74.4731H299ZM277.646 99.3385C290.983 93.0876 299 84.1354 299 74.4731H301C301 85.326 292.059 94.7924 278.495 101.149L277.646 99.3385ZM279.07 100.232C279.213 112.197 270.955 119.02 266.698 120.973L265.864 119.156C269.641 117.423 277.201 111.199 277.071 100.256L279.07 100.232ZM265.531 119.403C267.553 117.11 268.01 114.325 267.711 111.677C267.409 109.014 266.348 106.579 265.465 105.161L267.163 104.104C268.174 105.728 269.358 108.444 269.698 111.453C270.04 114.478 269.534 117.887 267.032 120.726L265.531 119.403ZM235 107.882C246.265 107.882 256.843 106.353 266.034 103.673L266.594 105.593C257.209 108.329 246.441 109.882 235 109.882V107.882Z" fill="#222222" mask="url(#path-19-inside-4_1979_612)"/>
<path d="M218.5 40C218.5 50.8149 211.595 60.678 200.28 67.8622C188.971 75.0425 173.317 79.5 156 79.5C138.683 79.5 123.029 75.0425 111.72 67.8622C100.405 60.678 93.5 50.8149 93.5 40C93.5 29.1851 100.405 19.322 111.72 12.1378C123.029 4.95749 138.683 0.5 156 0.5C173.317 0.5 188.971 4.95749 200.28 12.1378C211.595 19.322 218.5 29.1851 218.5 40Z" fill="white" stroke="#222222"/>
<path d="M223.5 320C223.5 330.815 216.595 340.678 205.28 347.862C193.971 355.043 178.317 359.5 161 359.5C143.683 359.5 128.029 355.043 116.72 347.862C105.405 340.678 98.5 330.815 98.5 320C98.5 309.185 105.405 299.322 116.72 292.138C128.029 284.957 143.683 280.5 161 280.5C178.317 280.5 193.971 284.957 205.28 292.138C216.595 299.322 223.5 309.185 223.5 320Z" fill="white" stroke="#222222"/>
<path d="M119.521 36.211C119.488 36.409 119.455 36.717 119.444 36.97C119.433 37.234 119.411 37.663 119.4 38.158C120.203 38.059 121.039 37.905 121.666 37.718L121.688 38.576C121.039 38.73 120.181 38.873 119.378 38.961C119.367 39.478 119.356 40.006 119.356 40.446C119.356 40.567 119.356 40.699 119.356 40.831C120.192 40.567 121.05 40.424 121.776 40.424C123.382 40.424 124.537 41.293 124.537 42.613C124.537 43.944 123.701 44.791 122.194 45.154C121.699 45.264 121.215 45.286 120.83 45.308L120.522 44.417C120.929 44.428 121.402 44.428 121.809 44.34C122.777 44.153 123.657 43.636 123.657 42.624C123.657 41.689 122.81 41.183 121.765 41.183C120.94 41.183 120.159 41.337 119.367 41.612C119.389 42.547 119.411 43.526 119.411 43.999C119.411 45.022 119.037 45.352 118.443 45.352C117.585 45.352 116.155 44.505 116.155 43.526C116.155 42.613 117.299 41.656 118.564 41.117C118.564 40.908 118.564 40.688 118.564 40.49C118.564 40.05 118.564 39.533 118.575 39.049C118.267 39.071 117.992 39.082 117.761 39.082C117.134 39.082 116.727 39.071 116.353 39.027L116.331 38.191C116.936 38.268 117.332 38.279 117.739 38.279C117.992 38.279 118.278 38.268 118.586 38.246C118.586 37.674 118.597 37.19 118.597 36.992C118.597 36.772 118.575 36.398 118.542 36.211H119.521ZM122.931 37.432C123.712 37.85 124.911 38.598 125.45 39.038L124.999 39.742C124.46 39.225 123.239 38.466 122.535 38.092L122.931 37.432ZM117.013 43.482C117.013 43.988 117.783 44.417 118.212 44.417C118.465 44.417 118.619 44.241 118.619 43.878C118.619 43.482 118.597 42.734 118.586 41.931C117.684 42.349 117.013 42.987 117.013 43.482ZM129.333 37.322C129.289 37.586 129.245 38.103 129.245 38.389C129.234 39.082 129.245 40.083 129.322 40.996C129.498 42.833 130.037 44.054 130.818 44.054C131.379 44.054 131.896 42.91 132.182 41.81L132.875 42.591C132.215 44.461 131.544 45.099 130.807 45.099C129.762 45.099 128.761 44.065 128.464 41.216C128.365 40.259 128.343 38.917 128.343 38.279C128.343 38.026 128.332 37.564 128.266 37.3L129.333 37.322ZM135.064 37.63C136.043 38.906 136.835 41.238 137 43.097L136.12 43.46C135.922 41.469 135.262 39.214 134.206 37.927L135.064 37.63ZM142.5 36.431C142.445 36.794 142.412 37.179 142.401 37.542C142.346 38.785 142.269 41.381 142.269 43.02C142.269 44.23 143.028 44.659 144.073 44.659C146.086 44.659 147.219 43.526 148.011 42.382L148.638 43.13C147.879 44.175 146.46 45.561 144.04 45.561C142.456 45.561 141.367 44.901 141.367 43.108C141.367 41.48 141.477 38.697 141.477 37.542C141.477 37.135 141.455 36.739 141.389 36.42L142.5 36.431ZM155.458 36.42C155.414 36.618 155.37 36.86 155.326 37.069C155.26 37.388 155.161 38.037 155.04 38.642C155.557 38.598 156.019 38.565 156.283 38.565C157.262 38.565 158.065 38.939 158.065 40.424C158.065 41.733 157.889 43.482 157.427 44.395C157.075 45.132 156.536 45.319 155.821 45.319C155.403 45.319 154.875 45.242 154.523 45.154L154.38 44.241C154.842 44.384 155.425 44.461 155.733 44.461C156.14 44.461 156.47 44.373 156.69 43.9C157.042 43.152 157.218 41.722 157.218 40.534C157.218 39.522 156.745 39.335 156.052 39.335C155.788 39.335 155.348 39.368 154.864 39.412C154.457 40.996 153.709 43.482 152.554 45.341L151.652 44.989C152.774 43.482 153.599 40.974 153.973 39.5C153.39 39.555 152.862 39.621 152.576 39.654C152.323 39.687 151.872 39.742 151.586 39.786L151.498 38.829C151.839 38.851 152.125 38.84 152.477 38.829C152.84 38.818 153.489 38.763 154.149 38.708C154.325 37.916 154.435 37.058 154.435 36.31L155.458 36.42ZM159.242 37.586C159.924 38.477 160.881 40.501 161.255 41.524L160.397 41.931C160.078 40.798 159.22 38.862 158.439 37.949L159.242 37.586ZM164.28 40.611C164.61 40.545 164.962 40.446 165.314 40.336C166.095 40.094 167.899 39.434 169.197 39.434C170.759 39.434 171.881 40.369 171.881 41.876C171.881 43.988 169.846 45.066 166.876 45.253L166.524 44.406C168.9 44.329 170.99 43.647 170.99 41.854C170.99 40.93 170.253 40.226 169.131 40.226C167.767 40.226 165.358 41.238 164.654 41.513L164.28 40.611ZM180.538 42.371C180.439 42.734 180.384 43.075 180.384 43.361C180.384 43.878 180.67 44.384 182.243 44.384C182.958 44.384 183.717 44.307 184.388 44.164L184.355 45.055C183.761 45.143 183.035 45.209 182.232 45.209C180.494 45.209 179.548 44.681 179.548 43.592C179.548 43.163 179.625 42.756 179.713 42.294L180.538 42.371ZM179.273 36.343C179.207 36.585 179.119 37.003 179.075 37.223C179.031 37.454 178.976 37.74 178.91 38.037C179.625 37.949 180.351 37.817 181.022 37.641V38.51C180.307 38.675 179.504 38.796 178.734 38.884C178.635 39.368 178.514 39.874 178.382 40.358C177.986 41.92 177.238 44.186 176.666 45.396L175.698 45.066C176.358 43.933 177.139 41.7 177.546 40.149C177.645 39.786 177.744 39.368 177.832 38.972C177.469 38.994 177.128 39.005 176.82 39.005C176.336 39.005 175.94 38.983 175.544 38.961L175.511 38.103C176.039 38.169 176.435 38.18 176.831 38.18C177.194 38.18 177.59 38.158 178.019 38.125C178.096 37.74 178.151 37.388 178.184 37.168C178.228 36.86 178.239 36.486 178.217 36.255L179.273 36.343ZM180.307 39.698C180.89 39.643 181.616 39.599 182.32 39.599C182.969 39.599 183.629 39.632 184.223 39.698L184.201 40.534C183.64 40.457 182.991 40.402 182.353 40.402C181.66 40.402 180.989 40.435 180.307 40.512V39.698ZM191.417 42.338L191.197 38.07L191.175 36.772H192.385L192.363 38.07L192.143 42.338H191.417ZM191.78 45.055C191.384 45.055 191.076 44.769 191.076 44.329C191.076 43.889 191.395 43.592 191.78 43.592C192.165 43.592 192.484 43.889 192.484 44.329C192.484 44.769 192.165 45.055 191.78 45.055Z" fill="#222222"/>
<path d="M31.4869 79.1147L41.2177 78.2633L41.2819 78.9975L31.5511 79.8489L31.4869 79.1147ZM35.81 77.6654L36.6428 77.5925L37.0714 82.4908L36.2386 82.5637L35.81 77.6654ZM35.5554 79.0458L36.2616 79.2932C35.3804 80.7064 33.6968 82.0352 32.1477 82.7559C31.998 82.5592 31.7291 82.2625 31.5285 82.1145C33.0852 81.4814 34.7584 80.286 35.5554 79.0458ZM37.1462 78.9287C38.1345 80.0017 39.9741 80.8345 41.68 81.149C41.5181 81.3178 41.2938 81.6576 41.1925 81.8873C39.4789 81.4852 37.5949 80.5237 36.4846 79.3179L37.1462 78.9287ZM34.8543 76.0817L34.9521 77.1994L37.4615 76.9798L37.3638 75.8621L34.8543 76.0817ZM34.7019 74.3393L34.7987 75.4461L37.3081 75.2265L37.2113 74.1198L34.7019 74.3393ZM33.8773 73.7489L37.9537 73.3923L38.32 77.5783L34.2435 77.9349L33.8773 73.7489ZM35.4452 72.4855L36.3552 72.5384C36.203 73.0706 36.0509 73.6029 35.9181 73.9789L35.1924 73.8878C35.3004 73.4809 35.403 72.8867 35.4452 72.4855ZM31.1726 74.0076L31.7012 73.4866C32.4318 73.8864 33.2683 74.4868 33.665 74.9821L33.1093 75.5718C32.7345 75.0746 31.9051 74.4294 31.1726 74.0076ZM38.2105 76.0751L38.6457 75.496C39.5378 75.8486 40.6921 76.4211 41.2822 76.8554L40.8318 77.5131C40.2637 77.077 39.1165 76.4596 38.2105 76.0751ZM39.8444 72.6637L40.5931 73.0178C40.068 73.7042 39.3832 74.4598 38.8327 74.9827L38.1826 74.62C38.7231 74.109 39.445 73.2729 39.8444 72.6637ZM31.1431 77.7093C31.7818 77.3111 32.7291 76.6541 33.6565 76.0208L33.946 76.6801C33.1564 77.2461 32.3057 77.8726 31.6189 78.3523L31.1431 77.7093ZM45.9467 72.2403C45.9236 72.6067 45.9243 72.9931 45.934 73.3566C45.9985 74.5987 46.138 77.2035 46.2809 78.8362C46.3864 80.0416 47.1789 80.3919 48.2199 80.3008C50.2253 80.1254 51.2671 78.9079 51.9564 77.6993L52.6352 78.3907C51.9812 79.4969 50.6765 80.9913 48.2766 81.2013C46.6986 81.3394 45.5572 80.7877 45.4 78.9906C45.2581 77.3688 45.1251 74.5868 45.0245 73.4362C44.989 73.0307 44.9226 72.6501 44.829 72.3381L45.9467 72.2403ZM58.8435 71.1009C58.8179 71.3129 58.7942 71.5469 58.7695 71.7699C58.7383 72.1701 58.6635 73.0821 58.5805 73.774C58.3421 75.3407 57.7919 78.1383 56.729 80.252L55.8098 79.9681C56.9133 78.1931 57.534 75.1906 57.7119 73.8169C57.8334 72.9339 57.9006 71.9343 57.8267 71.0905L58.8435 71.1009ZM62.7267 71.9427C63.4837 72.7708 64.6135 74.7037 65.0643 75.6912L64.256 76.1705C63.8285 75.0705 62.804 73.2057 61.9584 72.3743L62.7267 71.9427ZM55.1095 73.8568C55.4611 73.8371 55.746 73.8122 56.0957 73.7705C56.9047 73.6777 59.1072 73.231 59.8523 73.1658C60.8276 73.0805 61.6601 73.3831 61.7905 74.8734C61.9046 76.1774 61.8817 77.9351 61.512 78.8839C61.2256 79.6488 60.693 79.8721 59.9917 79.9334C59.5643 79.9708 59.0426 79.9392 58.6852 79.8932L58.4622 78.9851C58.9349 79.0873 59.5124 79.1251 59.8193 79.0983C60.2247 79.0628 60.5458 78.9464 60.7337 78.4441C61.0201 77.6792 61.0589 76.2293 60.9554 75.0459C60.8681 74.0487 60.3916 73.9026 59.6903 73.964C58.9561 74.0282 56.928 74.4486 56.2653 74.5728C56.0161 74.6277 55.5607 74.7228 55.2906 74.7906L55.1095 73.8568ZM68.0082 74.5061C68.3212 74.4235 68.6742 74.2933 69.0043 74.154C69.7612 73.8448 71.5118 73.0291 72.7939 72.917C74.3499 72.7808 75.5601 73.6135 75.6905 75.1038C75.8755 77.2187 73.9313 78.471 70.9989 78.9042L70.5634 78.092C72.9356 77.8183 74.9582 76.9567 74.8019 75.1705C74.7204 74.2391 73.9259 73.6129 72.7972 73.7117C71.4493 73.8296 69.1367 75.0368 68.4603 75.383L68.0082 74.5061ZM82.5621 68.9595C82.5175 69.2064 82.4772 69.6295 82.4516 69.8415C82.3563 70.6449 82.2345 71.9033 82.0235 73.026C81.7652 74.6165 81.2294 76.9491 80.7531 78.1943L79.772 77.96C80.3298 76.7628 80.9022 74.4712 81.1834 72.8897C81.3582 71.8585 81.5223 70.4528 81.5492 69.8763C81.5662 69.5656 81.5555 69.1912 81.5135 68.963L82.5621 68.9595ZM80.3005 71.0014C81.5059 70.896 83.0995 70.5578 84.4286 70.0992L84.5034 70.9539C83.1714 71.3796 81.533 71.7107 80.3495 71.8142C79.8674 71.8564 79.4829 71.879 79.0746 71.8816L78.9779 71.0288C79.4986 71.0495 79.8951 71.0369 80.3005 71.0014ZM83.8946 72.1997C84.4597 72.0951 85.191 71.998 85.8923 71.9366C86.5279 71.881 87.1982 71.8445 87.7957 71.8584L87.8467 72.6932C87.2711 72.6773 86.6298 72.6671 85.9832 72.7237C85.3038 72.7831 84.6283 72.8864 83.9665 73.0216L83.8946 72.1997ZM84.3468 74.8434C84.2907 75.2127 84.2547 75.5581 84.2796 75.843C84.3247 76.3581 84.6647 76.8363 86.2207 76.7001C86.9439 76.6369 87.6824 76.495 88.3503 76.304L88.3941 77.1835C87.81 77.323 87.0816 77.453 86.2817 77.5229C84.5612 77.6735 83.5728 77.2299 83.4779 76.1451C83.4415 75.7287 83.4708 75.3065 83.5291 74.8376L84.3468 74.8434ZM95.1934 73.8723L94.6023 69.6398L94.4553 68.3386L95.6716 68.2322L95.7529 69.5391L95.9057 73.81L95.1934 73.8723ZM95.7909 76.5364C95.3964 76.5709 95.0546 76.3248 95.0163 75.8865C94.9779 75.4481 95.2698 75.1245 95.6643 75.0899C96.0478 75.0564 96.3915 75.3245 96.4299 75.7628C96.4682 76.2011 96.1744 76.5029 95.7909 76.5364Z" fill="#222222"/>
<path d="M122.816 323.845C122.816 324.351 123.256 324.736 124.345 324.736C124.972 324.736 125.511 324.538 125.511 323.779C125.511 323.592 125.5 323.328 125.5 323.042C125.159 322.965 124.796 322.932 124.433 322.932C123.388 322.932 122.816 323.339 122.816 323.845ZM126.303 316.266C126.27 316.464 126.248 316.684 126.237 317.003C126.237 317.146 126.226 317.388 126.226 317.674C127.216 317.63 128.217 317.531 129.207 317.377L129.196 318.18C128.327 318.279 127.282 318.378 126.226 318.433C126.226 318.917 126.226 319.434 126.226 319.841C126.226 319.885 126.226 319.929 126.226 319.973C127.293 319.929 128.294 319.83 129.295 319.676L129.284 320.501C128.25 320.633 127.282 320.721 126.237 320.754C126.259 321.326 126.292 321.92 126.314 322.448C127.777 322.844 128.899 323.647 129.526 324.164L129.02 324.945C128.371 324.351 127.458 323.68 126.358 323.284C126.369 323.559 126.38 323.79 126.38 323.966C126.38 324.725 125.874 325.506 124.444 325.506C122.86 325.506 122.002 324.945 122.002 323.889C122.002 322.888 122.959 322.206 124.543 322.206C124.862 322.206 125.17 322.228 125.467 322.272C125.456 321.777 125.434 321.249 125.423 320.776C125.214 320.776 125.005 320.776 124.796 320.776C124.048 320.776 122.838 320.71 122.046 320.622L122.035 319.797C122.827 319.929 124.081 320.006 124.807 320.006C125.005 320.006 125.203 320.006 125.401 320.006C125.401 319.951 125.401 319.896 125.401 319.841C125.401 319.401 125.401 318.917 125.401 318.466C125.247 318.466 125.082 318.466 124.917 318.466C124.147 318.466 122.794 318.356 122.101 318.279L122.09 317.465C122.805 317.597 124.169 317.707 124.906 317.707C125.071 317.707 125.236 317.707 125.412 317.707C125.412 317.421 125.412 317.157 125.412 316.926C125.412 316.739 125.39 316.42 125.368 316.266H126.303ZM138.018 322.371C137.919 322.734 137.864 323.075 137.864 323.361C137.864 323.878 138.15 324.384 139.723 324.384C140.438 324.384 141.197 324.307 141.868 324.164L141.835 325.055C141.241 325.143 140.515 325.209 139.712 325.209C137.974 325.209 137.028 324.681 137.028 323.592C137.028 323.163 137.105 322.756 137.193 322.294L138.018 322.371ZM136.753 316.343C136.687 316.585 136.599 317.003 136.555 317.223C136.511 317.454 136.456 317.74 136.39 318.037C137.105 317.949 137.831 317.817 138.502 317.641V318.51C137.787 318.675 136.984 318.796 136.214 318.884C136.115 319.368 135.994 319.874 135.862 320.358C135.466 321.92 134.718 324.186 134.146 325.396L133.178 325.066C133.838 323.933 134.619 321.7 135.026 320.149C135.125 319.786 135.224 319.368 135.312 318.972C134.949 318.994 134.608 319.005 134.3 319.005C133.816 319.005 133.42 318.983 133.024 318.961L132.991 318.103C133.519 318.169 133.915 318.18 134.311 318.18C134.674 318.18 135.07 318.158 135.499 318.125C135.576 317.74 135.631 317.388 135.664 317.168C135.708 316.86 135.719 316.486 135.697 316.255L136.753 316.343ZM137.787 319.698C138.37 319.643 139.096 319.599 139.8 319.599C140.449 319.599 141.109 319.632 141.703 319.698L141.681 320.534C141.12 320.457 140.471 320.402 139.833 320.402C139.14 320.402 138.469 320.435 137.787 320.512V319.698ZM153.913 316.464V317.234H148.545V316.464H153.913ZM146.708 315.793L147.489 316.101C146.774 317.069 145.652 318.136 144.673 318.829C144.552 318.653 144.332 318.334 144.189 318.18C145.102 317.564 146.158 316.574 146.708 315.793ZM147.159 318.136L147.918 318.422C147.577 318.983 147.159 319.544 146.708 320.083V325.869H145.894V320.985C145.476 321.414 145.058 321.81 144.651 322.129C144.53 321.964 144.244 321.612 144.079 321.447C145.212 320.644 146.4 319.379 147.159 318.136ZM154.232 319.467V320.248H152.571V324.791C152.571 325.297 152.45 325.55 152.087 325.682C151.713 325.803 151.097 325.803 150.019 325.803C149.986 325.583 149.876 325.242 149.755 325.011C150.536 325.033 151.262 325.033 151.471 325.022C151.68 325.011 151.746 324.967 151.746 324.78V320.248H148.072V319.467H154.232ZM161.162 317.322C161.074 316.992 160.964 316.651 160.854 316.343L161.789 316.222C161.833 316.64 161.932 317.091 162.053 317.531C162.834 317.432 163.604 317.267 164.308 317.036L164.429 317.828C163.802 318.004 163.021 318.169 162.262 318.268C162.339 318.543 162.427 318.796 162.504 319.027C162.581 319.236 162.669 319.467 162.757 319.687C163.67 319.577 164.44 319.379 164.957 319.214L165.089 320.039C164.561 320.182 163.868 320.325 163.098 320.435C163.329 320.908 163.582 321.381 163.868 321.799C163.989 321.975 164.121 322.118 164.275 322.272L163.824 322.943C163.208 322.778 162.174 322.679 161.415 322.591L161.492 321.92C162.075 321.986 162.79 322.063 163.142 322.107C162.812 321.601 162.526 321.062 162.284 320.523C160.942 320.644 159.138 320.666 157.444 320.545L157.4 319.72C159.05 319.896 160.722 319.885 161.965 319.775C161.888 319.577 161.811 319.39 161.745 319.203C161.635 318.895 161.536 318.609 161.448 318.345C160.381 318.411 159.039 318.389 157.664 318.268L157.609 317.465C158.929 317.619 160.183 317.652 161.239 317.597C161.206 317.509 161.184 317.41 161.162 317.322ZM158.995 322.085C158.731 322.47 158.533 322.844 158.533 323.328C158.533 324.241 159.347 324.692 161.074 324.692C162.097 324.692 162.9 324.626 163.692 324.461L163.659 325.341C162.889 325.462 162.02 325.528 161.085 325.528C158.929 325.528 157.719 324.89 157.708 323.482C157.697 322.855 157.895 322.393 158.137 321.909L158.995 322.085ZM173.658 322.371C173.559 322.734 173.504 323.075 173.504 323.361C173.504 323.878 173.79 324.384 175.363 324.384C176.078 324.384 176.837 324.307 177.508 324.164L177.475 325.055C176.881 325.143 176.155 325.209 175.352 325.209C173.614 325.209 172.668 324.681 172.668 323.592C172.668 323.163 172.745 322.756 172.833 322.294L173.658 322.371ZM172.393 316.343C172.327 316.585 172.239 317.003 172.195 317.223C172.151 317.454 172.096 317.74 172.03 318.037C172.745 317.949 173.471 317.817 174.142 317.641V318.51C173.427 318.675 172.624 318.796 171.854 318.884C171.755 319.368 171.634 319.874 171.502 320.358C171.106 321.92 170.358 324.186 169.786 325.396L168.818 325.066C169.478 323.933 170.259 321.7 170.666 320.149C170.765 319.786 170.864 319.368 170.952 318.972C170.589 318.994 170.248 319.005 169.94 319.005C169.456 319.005 169.06 318.983 168.664 318.961L168.631 318.103C169.159 318.169 169.555 318.18 169.951 318.18C170.314 318.18 170.71 318.158 171.139 318.125C171.216 317.74 171.271 317.388 171.304 317.168C171.348 316.86 171.359 316.486 171.337 316.255L172.393 316.343ZM173.427 319.698C174.01 319.643 174.736 319.599 175.44 319.599C176.089 319.599 176.749 319.632 177.343 319.698L177.321 320.534C176.76 320.457 176.111 320.402 175.473 320.402C174.78 320.402 174.109 320.435 173.427 320.512V319.698ZM181.853 317.322C181.809 317.586 181.765 318.103 181.765 318.389C181.754 319.082 181.765 320.083 181.842 320.996C182.018 322.833 182.557 324.054 183.338 324.054C183.899 324.054 184.416 322.91 184.702 321.81L185.395 322.591C184.735 324.461 184.064 325.099 183.327 325.099C182.282 325.099 181.281 324.065 180.984 321.216C180.885 320.259 180.863 318.917 180.863 318.279C180.863 318.026 180.852 317.564 180.786 317.3L181.853 317.322ZM187.584 317.63C188.563 318.906 189.355 321.238 189.52 323.097L188.64 323.46C188.442 321.469 187.782 319.214 186.726 317.927L187.584 317.63ZM196.417 322.338L196.197 318.07L196.175 316.772H197.385L197.363 318.07L197.143 322.338H196.417ZM196.78 325.055C196.384 325.055 196.076 324.769 196.076 324.329C196.076 323.889 196.395 323.592 196.78 323.592C197.165 323.592 197.484 323.889 197.484 324.329C197.484 324.769 197.165 325.055 196.78 325.055Z" fill="#222222"/>
<path d="M34.9521 283.524C34.5611 283.07 33.9073 282.34 33.4668 281.948L34.1307 281.553C34.4684 281.859 35.2408 282.622 35.6198 283.086L34.9521 283.524ZM31.5498 282.277C31.6112 282.459 31.7658 282.837 31.8691 283.045C32.0347 283.424 32.2155 283.881 32.3944 284.36C33.7712 283.896 35.3023 283.433 36.442 283.533C37.9542 283.665 38.8099 284.613 38.7054 285.807C38.5951 287.067 37.7008 287.95 35.9913 287.8C35.3777 287.746 34.7775 287.539 34.3745 287.349L34.4821 286.498C34.8932 286.721 35.4267 286.934 36.0075 286.984C37.2019 287.089 37.7635 286.475 37.8326 285.686C37.8891 285.04 37.4259 284.403 36.352 284.309C35.3877 284.225 33.9947 284.622 32.6718 285.102C32.7874 285.422 32.903 285.741 33.0087 286.048C33.4925 287.46 34.0045 289.559 34.2716 290.797L33.3072 290.966C33.0806 289.643 32.709 287.833 32.21 286.343C32.0953 286.013 31.9906 285.694 31.8731 285.397C30.9939 285.729 30.1923 286.056 29.6681 286.242L29.3303 285.307C29.6548 285.258 30.0508 285.149 30.2547 285.09C30.6398 284.98 31.1063 284.822 31.6076 284.645C31.4197 284.143 31.2479 283.708 31.0885 283.385C30.9652 283.153 30.7758 282.794 30.6196 282.56L31.5498 282.277ZM42.2321 286.767C42.5666 286.73 42.9259 286.662 43.2862 286.583C44.0853 286.41 45.9399 285.91 47.233 286.023C48.7891 286.159 49.8253 287.188 49.694 288.69C49.5099 290.794 47.3887 291.69 44.4137 291.618L44.1368 290.743C46.5105 290.874 48.652 290.376 48.8083 288.59C48.8888 287.67 48.216 286.904 47.0982 286.806C45.7394 286.687 43.2514 287.486 42.5261 287.698L42.2321 286.767ZM52.9534 284.779C53.3707 284.804 53.7233 284.813 53.9334 284.809C54.6524 284.795 56.7417 284.768 58.7724 284.78C59.9764 284.775 61.0113 284.81 61.7484 284.842L61.6717 285.718C61.047 285.664 60.0818 285.59 59.5085 285.706C57.9084 286.074 56.8093 287.656 56.6962 288.949C56.5082 291.097 58.4432 291.951 60.2236 292.173L59.8263 293.054C57.8057 292.8 55.5884 291.513 55.8022 289.07C55.9518 287.36 57.1146 286.059 58.1755 285.545C56.9914 285.574 54.1741 285.592 52.9686 285.741L52.9534 284.779ZM66.3665 285.19C66.6495 285.237 66.9663 285.276 67.1855 285.295C67.7663 285.346 69.2085 285.395 69.6716 285.402C69.8818 285.399 70.0828 285.372 70.2301 285.33L70.7387 285.827C70.6295 285.939 70.5213 286.04 70.4221 286.164C70.0722 286.63 69.4922 287.705 68.9428 288.684C70.039 288.902 71.0275 289.342 71.8796 289.825C71.9474 289.555 71.9933 289.282 72.0382 289.021C72.0779 288.694 72.1215 288.322 72.1264 288.013L73.0054 288.19C72.9045 288.965 72.7664 289.659 72.5902 290.284C73.0904 290.626 73.5138 290.961 73.8424 291.244L73.3545 292.151C73.0506 291.837 72.693 291.508 72.2906 291.186C71.7166 292.571 70.7818 293.538 69.1238 294.188L68.4533 293.522C70.2489 292.939 71.1405 291.836 71.5947 290.683C70.7193 290.087 69.6799 289.599 68.5489 289.401C68.0371 290.328 67.3871 291.574 66.917 292.151C66.4736 292.675 66.0399 292.836 65.4701 292.786C64.6592 292.715 64.0963 292.081 64.1769 291.16C64.3178 289.55 65.9165 288.442 68.08 288.576C68.5393 287.744 69.0391 286.827 69.4382 286.177C68.998 286.161 67.6563 286.098 67.1494 286.087C66.9073 286.077 66.5976 286.083 66.3327 286.082L66.3665 285.19ZM64.9864 291.121C64.9442 291.603 65.228 291.893 65.5787 291.923C65.8307 291.945 66.0147 291.862 66.2698 291.597C66.7093 291.117 67.2149 290.134 67.6732 289.313C66.0628 289.294 65.0689 290.178 64.9864 291.121ZM81.3987 291.96C81.2684 292.313 81.1839 292.648 81.159 292.933C81.1139 293.448 81.3547 293.977 82.9218 294.114C83.634 294.177 84.3969 294.166 85.0778 294.082L84.9672 294.967C84.3678 295.003 83.6388 295.005 82.8389 294.935C81.1075 294.784 80.2111 294.175 80.306 293.09C80.3434 292.663 80.4556 292.264 80.5835 291.812L81.3987 291.96ZM80.6639 285.845C80.577 286.08 80.4529 286.489 80.3899 286.704C80.326 286.931 80.2463 287.211 80.1546 287.501C80.8746 287.476 81.6093 287.407 82.2931 287.291L82.2174 288.156C81.4907 288.258 80.6802 288.309 79.9055 288.329C79.7647 288.803 79.6 289.296 79.4263 289.767C78.8957 291.289 77.9531 293.481 77.2778 294.636L76.3422 294.223C77.0985 293.152 78.0711 290.996 78.6117 289.486C78.742 289.133 78.877 288.725 78.9992 288.338C78.6357 288.329 78.295 288.31 77.9882 288.283C77.506 288.241 77.1135 288.185 76.7209 288.128L76.7628 287.27C77.283 287.382 77.6766 287.428 78.0711 287.462C78.4327 287.494 78.8291 287.506 79.2593 287.511C79.3696 287.134 79.4551 286.788 79.5071 286.572C79.5778 286.269 79.6213 285.897 79.6196 285.665L80.6639 285.845ZM81.4015 289.277C81.9871 289.273 82.7142 289.293 83.4155 289.354C84.062 289.411 84.7166 289.501 85.3026 289.619L85.2079 290.45C84.6557 290.324 84.014 290.213 83.3784 290.157C82.688 290.097 82.0167 290.071 81.3306 290.088L81.4015 289.277ZM90.0026 287.645C89.9357 287.904 89.8468 288.415 89.8219 288.7C89.7505 289.39 89.6743 290.388 89.6714 291.304C89.6866 293.149 90.1171 294.413 90.8952 294.481C91.454 294.53 92.0688 293.435 92.4496 292.364L93.0719 293.202C92.2514 295.008 91.5273 295.585 90.7931 295.521C89.7521 295.43 88.845 294.312 88.7975 291.448C88.7823 290.486 88.8773 289.147 88.9329 288.512C88.955 288.26 88.9843 287.799 88.9415 287.53L90.0026 287.645ZM95.6849 288.451C96.549 289.808 97.1347 292.2 97.1371 294.066L96.2288 294.351C96.205 292.35 95.7441 290.046 94.8043 288.672L95.6849 288.451ZM104.074 293.911L104.227 289.64L104.318 288.345L105.523 288.451L105.388 289.742L104.797 293.974L104.074 293.911ZM104.199 296.649C103.804 296.615 103.522 296.303 103.561 295.865C103.599 295.426 103.943 295.158 104.326 295.192C104.71 295.226 105.002 295.549 104.963 295.988C104.925 296.426 104.582 296.683 104.199 296.649Z" fill="#222222"/>
<path d="M224.928 290.927L224.812 290.109C225.304 290.055 225.873 289.994 226.507 289.917C226.814 289.26 227.146 288.392 227.36 287.678L224.281 287.947L224.213 287.169L228.497 286.794L228.382 285.479L229.193 285.408L229.308 286.723L233.659 286.343L233.727 287.121L228.324 287.593C228.034 288.314 227.698 289.139 227.37 289.808C228.692 289.648 230.199 289.461 231.685 289.276C231.174 288.868 230.62 288.464 230.105 288.133L230.727 287.67C231.872 288.387 233.246 289.448 233.909 290.218L233.249 290.751C233.051 290.503 232.773 290.23 232.46 289.937C229.712 290.332 226.819 290.706 224.928 290.927ZM227.441 291.005L228.296 290.93C228.316 293.303 227.886 294.831 225.191 295.829C225.096 295.627 224.848 295.318 224.66 295.18C227.147 294.333 227.465 293.046 227.441 291.005ZM231.912 294.401L233.315 294.279C233.742 294.241 233.786 293.984 233.697 292.335C233.897 292.472 234.248 292.574 234.484 292.62C234.546 294.469 234.368 294.96 233.437 295.041L231.881 295.177C230.917 295.262 230.631 295.022 230.552 294.123L230.252 290.693L231.074 290.621L231.374 294.051C231.403 294.38 231.485 294.439 231.912 294.401ZM246.093 291.151L242.126 291.498C243.007 292.603 244.472 293.192 246.402 293.299C246.241 293.479 246.062 293.826 245.971 294.044C243.801 293.858 242.23 293.068 241.26 291.574L241.162 291.583C240.687 292.717 239.581 293.83 237.147 294.794C237.044 294.626 236.787 294.339 236.597 294.179C238.682 293.401 239.733 292.536 240.23 291.664L236.516 291.989L236.452 291.266L240.54 290.908C240.642 290.557 240.666 290.202 240.658 289.86L237.622 290.126L237.563 289.446L240.62 289.179L240.535 288.203L237.302 288.486L237.242 287.796L240.475 287.513L240.395 286.603L241.206 286.533L241.285 287.442L244.672 287.146L244.561 285.886L237 286.547L237.12 287.917L236.331 287.986L236.147 285.882L240.322 285.517L240.229 284.454L241.04 284.383L241.133 285.446L245.319 285.08L245.503 287.183L244.681 287.255L244.732 287.836L241.346 288.132L241.431 289.108L244.664 288.825L244.723 289.504L241.469 289.789C241.477 290.131 241.452 290.486 241.384 290.834L246.03 290.428L246.093 291.151ZM250.782 284.16C250.758 284.526 250.759 284.913 250.78 285.275C250.833 286.518 250.983 289.111 251.126 290.744C251.231 291.949 252.025 292.311 253.066 292.22C255.071 292.044 256.101 290.817 256.79 289.608L257.48 290.298C256.815 291.406 255.522 292.91 253.111 293.121C251.533 293.259 250.391 292.696 250.235 290.91C250.093 289.288 249.96 286.506 249.859 285.356C249.824 284.95 249.767 284.558 249.674 284.246L250.782 284.16ZM265.523 288.833C265.456 289.203 265.431 289.548 265.456 289.833C265.501 290.348 265.83 290.827 267.397 290.69C268.109 290.627 268.859 290.484 269.515 290.284L269.559 291.174C268.975 291.313 268.258 291.442 267.458 291.512C265.726 291.664 264.738 291.22 264.643 290.136C264.606 289.708 264.647 289.296 264.694 288.828L265.523 288.833ZM263.737 282.938C263.693 283.185 263.641 283.609 263.617 283.832C263.593 284.066 263.563 284.356 263.523 284.657C264.228 284.507 264.94 284.313 265.593 284.079L265.669 284.944C264.971 285.171 264.181 285.362 263.422 285.516C263.365 286.007 263.289 286.522 263.2 287.015C262.941 288.606 262.394 290.929 261.929 292.184L260.936 291.939C261.495 290.753 262.078 288.461 262.349 286.88C262.416 286.51 262.478 286.085 262.531 285.683C262.171 285.736 261.833 285.777 261.526 285.804C261.044 285.846 260.647 285.859 260.251 285.871L260.143 285.019C260.675 285.039 261.07 285.015 261.465 284.981C261.826 284.949 262.219 284.893 262.643 284.823C262.687 284.432 262.711 284.077 262.724 283.855C262.741 283.544 262.72 283.171 262.678 282.942L263.737 282.938ZM265.06 286.19C265.636 286.085 266.355 285.978 267.057 285.916C267.703 285.86 268.363 285.835 268.961 285.849L269.012 286.684C268.446 286.656 267.795 286.658 267.159 286.713C266.469 286.774 265.803 286.865 265.131 287.001L265.06 286.19ZM276.358 287.852L275.766 283.619L275.631 282.328L276.837 282.223L276.928 283.518L277.081 287.789L276.358 287.852ZM276.956 290.527C276.562 290.561 276.23 290.303 276.191 289.865C276.153 289.427 276.445 289.103 276.829 289.069C277.212 289.036 277.556 289.304 277.594 289.742C277.632 290.181 277.34 290.493 276.956 290.527Z" fill="#222222"/>
<path d="M207.144 79.616L206.473 79.165C207.21 78.659 207.683 77.823 207.936 77.02L208.64 77.262C208.365 78.131 207.936 79.055 207.144 79.616ZM211.94 72.323V72.895H208.585V72.323H211.94ZM211.071 75.359V74.215H209.454V75.359H211.071ZM211.687 75.964L211.72 75.942H208.772V73.643H211.764V75.909C212.281 75.568 212.754 75.139 213.172 74.644C212.743 73.808 212.391 72.752 212.182 71.586H208.189V72.554C208.189 73.819 207.991 75.612 206.99 76.844C206.891 76.69 206.561 76.426 206.396 76.338C207.32 75.205 207.441 73.665 207.441 72.543V70.904H212.083C212.039 70.541 212.006 70.167 211.984 69.793H212.765C212.776 70.167 212.809 70.541 212.853 70.904H214.855C214.503 70.651 213.942 70.376 213.458 70.211L213.887 69.727C214.426 69.903 215.097 70.211 215.449 70.497L215.108 70.904H216.318V71.586H212.963C213.128 72.488 213.381 73.291 213.678 73.962C214.052 73.401 214.349 72.785 214.569 72.114L215.328 72.29C215.02 73.192 214.591 74.006 214.074 74.71C214.536 75.458 215.042 75.887 215.493 75.887C215.768 75.876 215.878 75.491 215.933 74.501C216.087 74.644 216.362 74.798 216.571 74.864C216.439 76.239 216.142 76.624 215.449 76.624C214.778 76.624 214.129 76.14 213.579 75.337C213.183 75.799 212.743 76.195 212.281 76.525C212.16 76.382 211.863 76.096 211.687 75.964ZM210.147 76.58L210.686 76.129C211.368 76.448 212.182 76.976 212.567 77.394L212.006 77.911C211.632 77.493 210.84 76.932 210.147 76.58ZM210.807 78.967H212.809C213.293 78.967 213.37 78.835 213.403 77.812C213.579 77.944 213.92 78.065 214.151 78.109C214.041 79.396 213.799 79.704 212.875 79.704H210.741C209.608 79.704 209.311 79.484 209.311 78.648V76.943H210.125V78.637C210.125 78.912 210.213 78.967 210.807 78.967ZM213.92 77.262L214.591 76.899C215.383 77.526 216.197 78.417 216.538 79.099L215.812 79.495C215.515 78.824 214.712 77.911 213.92 77.262ZM219.376 75.689H220.762V74.886H219.376V75.689ZM219.376 73.555V74.347H220.762V73.555H219.376ZM222.94 73.555H221.499V74.347H222.94V73.555ZM222.94 75.689V74.886H221.499V75.689H222.94ZM225.833 72.345H228.165C228.165 72.345 228.154 72.653 228.154 72.763C228.033 77.372 227.934 78.901 227.56 79.363C227.373 79.649 227.153 79.737 226.823 79.77C226.515 79.814 225.998 79.803 225.492 79.77C225.47 79.55 225.382 79.209 225.261 79C225.789 79.044 226.273 79.055 226.482 79.055C226.669 79.055 226.768 79.022 226.878 78.879C227.131 78.56 227.263 77.108 227.373 73.115H225.8C225.668 76.041 225.162 78.439 223.226 79.891C223.105 79.715 222.819 79.44 222.621 79.308C222.797 79.187 222.951 79.055 223.094 78.923C221.433 79.121 219.728 79.308 218.496 79.44L218.375 78.725C219.035 78.67 219.86 78.593 220.762 78.505V77.559H218.683V76.932H220.762V76.261H218.705V72.994H220.762V72.301H218.386V71.663H220.762V70.937C220.058 70.992 219.343 71.036 218.694 71.058C218.661 70.882 218.584 70.618 218.496 70.453C220.124 70.365 222.104 70.167 223.237 69.914L223.644 70.541C223.05 70.673 222.302 70.772 221.499 70.86V71.663H223.831V72.301H221.499V72.994H223.633V76.261H221.499V76.932H223.655V77.559H221.499V78.428C222.214 78.362 222.962 78.285 223.699 78.197V78.241C224.645 76.943 224.942 75.172 225.041 73.115H223.754V72.345H225.063C225.085 71.575 225.085 70.772 225.085 69.936H225.855C225.855 70.761 225.855 71.575 225.833 72.345ZM233.5 70.431C233.445 70.794 233.412 71.179 233.401 71.542C233.346 72.785 233.269 75.381 233.269 77.02C233.269 78.23 234.028 78.659 235.073 78.659C237.086 78.659 238.219 77.526 239.011 76.382L239.638 77.13C238.879 78.175 237.46 79.561 235.04 79.561C233.456 79.561 232.367 78.901 232.367 77.108C232.367 75.48 232.477 72.697 232.477 71.542C232.477 71.135 232.455 70.739 232.389 70.42L233.5 70.431ZM247.778 76.371C247.679 76.734 247.624 77.075 247.624 77.361C247.624 77.878 247.91 78.384 249.483 78.384C250.198 78.384 250.957 78.307 251.628 78.164L251.595 79.055C251.001 79.143 250.275 79.209 249.472 79.209C247.734 79.209 246.788 78.681 246.788 77.592C246.788 77.163 246.865 76.756 246.953 76.294L247.778 76.371ZM246.513 70.343C246.447 70.585 246.359 71.003 246.315 71.223C246.271 71.454 246.216 71.74 246.15 72.037C246.865 71.949 247.591 71.817 248.262 71.641V72.51C247.547 72.675 246.744 72.796 245.974 72.884C245.875 73.368 245.754 73.874 245.622 74.358C245.226 75.92 244.478 78.186 243.906 79.396L242.938 79.066C243.598 77.933 244.379 75.7 244.786 74.149C244.885 73.786 244.984 73.368 245.072 72.972C244.709 72.994 244.368 73.005 244.06 73.005C243.576 73.005 243.18 72.983 242.784 72.961L242.751 72.103C243.279 72.169 243.675 72.18 244.071 72.18C244.434 72.18 244.83 72.158 245.259 72.125C245.336 71.74 245.391 71.388 245.424 71.168C245.468 70.86 245.479 70.486 245.457 70.255L246.513 70.343ZM247.547 73.698C248.13 73.643 248.856 73.599 249.56 73.599C250.209 73.599 250.869 73.632 251.463 73.698L251.441 74.534C250.88 74.457 250.231 74.402 249.593 74.402C248.9 74.402 248.229 74.435 247.547 74.512V73.698ZM258.657 76.338L258.437 72.07L258.415 70.772H259.625L259.603 72.07L259.383 76.338H258.657ZM259.02 79.055C258.624 79.055 258.316 78.769 258.316 78.329C258.316 77.889 258.635 77.592 259.02 77.592C259.405 77.592 259.724 77.889 259.724 78.329C259.724 78.769 259.405 79.055 259.02 79.055Z" fill="#222222"/>
</svg>
