<svg width="87" height="87" viewBox="0 0 87 87" fill="none" xmlns="http://www.w3.org/2000/svg">
<g clip-path="url(#clip0_1965_217)">
<path d="M43.4884 0C19.5082 0 0 19.5082 0 43.4884C0 67.4686 19.5082 86.9767 43.4884 86.9767H86.9767V43.4884C86.9767 19.5082 67.4686 0 43.4884 0ZM79.7287 79.7287H43.4884C23.5055 79.7287 7.24806 63.4713 7.24806 43.4884C7.24806 23.5055 23.5055 7.24806 43.4884 7.24806C63.4713 7.24806 79.7287 23.5055 79.7287 43.4884V79.7287ZM48.9244 43.4884C48.9244 46.4891 46.4891 48.9244 43.4884 48.9244C40.4877 48.9244 38.0523 46.4891 38.0523 43.4884C38.0523 40.4877 40.4877 38.0523 43.4884 38.0523C46.4891 38.0523 48.9244 40.4877 48.9244 43.4884ZM67.0446 43.4884C67.0446 46.4891 64.6092 48.9244 61.6085 48.9244C58.6078 48.9244 56.1725 46.4891 56.1725 43.4884C56.1725 40.4877 58.6078 38.0523 61.6085 38.0523C64.6092 38.0523 67.0446 40.4877 67.0446 43.4884ZM30.8043 43.4884C30.8043 46.4891 28.3689 48.9244 25.3682 48.9244C22.3675 48.9244 19.9322 46.4891 19.9322 43.4884C19.9322 40.4877 22.3675 38.0523 25.3682 38.0523C28.3689 38.0523 30.8043 40.4877 30.8043 43.4884Z" fill="black"/>
</g>
<defs>
<clipPath id="clip0_1965_217">
<rect width="86.9767" height="86.9767" fill="white"/>
</clipPath>
</defs>
</svg>
