<svg width="1280" height="836" viewBox="0 0 1280 836" fill="none" xmlns="http://www.w3.org/2000/svg">
<mask id="mask0_2752_508" style="mask-type:luminance" maskUnits="userSpaceOnUse" x="0" y="0" width="1280" height="837">
<path d="M1280 0H0V837H1280V0Z" fill="white"/>
</mask>
<g mask="url(#mask0_2752_508)">
<path d="M1296.99 -122.754H-66.4492V944.288H1296.99V-122.754Z" fill="#00011A"/>
<g opacity="0.5">
<path opacity="0.34" d="M137.955 816.862C139.776 808.884 134.785 800.939 126.807 799.118C118.828 797.296 110.884 802.288 109.063 810.266C107.241 818.244 112.232 826.188 120.211 828.01C128.189 829.831 136.133 824.84 137.955 816.862Z" fill="white"/>
<path opacity="0.34" d="M1124.54 49.7013C1132.72 49.7013 1139.36 43.0672 1139.36 34.8836C1139.36 26.7 1132.72 20.0659 1124.54 20.0659C1116.36 20.0659 1109.72 26.7 1109.72 34.8836C1109.72 43.0672 1116.36 49.7013 1124.54 49.7013Z" fill="white"/>
<path opacity="0.34" d="M818.321 811.561C820.169 803.589 815.204 795.628 807.232 793.78C799.259 791.932 791.299 796.897 789.451 804.869C787.603 812.841 792.568 820.802 800.54 822.65C808.512 824.498 816.473 819.533 818.321 811.561Z" fill="white"/>
<path opacity="0.34" d="M995.292 258.271C1051.18 202.366 1106.21 147.338 1162.07 91.6157" stroke="white" stroke-width="11" stroke-miterlimit="10" stroke-linecap="round"/>
<path opacity="0.34" d="M1120.57 821.616C1129.19 814.056 1137.17 805.283 1144.75 797.436" stroke="white" stroke-width="11" stroke-miterlimit="10" stroke-linecap="round"/>
<path opacity="0.34" d="M131.692 533.286C144.269 521.379 157.029 508.619 169.326 495.651" stroke="white" stroke-width="11" stroke-miterlimit="10" stroke-linecap="round"/>
<path opacity="0.34" d="M77.9878 587.08C86.872 578.172 95.7562 569.256 104.64 560.34" stroke="white" stroke-width="11" stroke-miterlimit="10" stroke-linecap="round"/>
<g style="mix-blend-mode:hard-light" opacity="0.34">
<path d="M839.631 220.59C918.058 141.66 997.011 63.5045 1075.36 -15.1377" stroke="#2FBFD3" stroke-width="26" stroke-miterlimit="10" stroke-linecap="round"/>
</g>
<path opacity="0.34" d="M660.504 718.53C665.201 713.139 670.784 708.354 676.606 702.429" stroke="#FFEB71" stroke-width="26" stroke-miterlimit="10" stroke-linecap="round"/>
<path opacity="0.34" d="M90.5332 1288.49C272.03 1107.9 452.267 926.065 633.445 745.582" stroke="#FFEB71" stroke-width="26" stroke-miterlimit="10" stroke-linecap="round"/>
<path opacity="0.34" d="M1152.92 385.037C1269.55 269.359 1384.39 152.125 1500.43 37.5791" stroke="#FFEB71" stroke-width="26" stroke-miterlimit="10" stroke-linecap="round"/>
<path opacity="0.34" d="M1031.6 506.415C1063 475.121 1094.9 443.221 1125.77 412.222" stroke="#FFEB71" stroke-width="26" stroke-miterlimit="10" stroke-linecap="round"/>
<path opacity="0.34" d="M29.2769 239.596C101.204 166.489 175.372 94.713 247.459 21.4141" stroke="#FFEB71" stroke-width="26" stroke-miterlimit="10" stroke-linecap="round"/>
<path opacity="0.34" d="M-338.604 607.476C-224.975 493.464 -110.932 380.218 2.20288 266.669" stroke="#FFEB71" stroke-width="26" stroke-miterlimit="10" stroke-linecap="round"/>
<path opacity="0.34" d="M770.894 53.8786C900.162 -75.4293 1029.36 -204.626 1158.73 -333.894" stroke="#FFEB71" stroke-width="26" stroke-miterlimit="10" stroke-linecap="round"/>
<g style="mix-blend-mode:hard-light" opacity="0.34">
<path d="M374.166 382.42C380.331 376.232 386.711 369.852 392.963 363.623" stroke="#2FBFD3" stroke-width="26" stroke-miterlimit="10" stroke-linecap="round"/>
</g>
<g style="mix-blend-mode:hard-light" opacity="0.34">
<path d="M-288.721 1048.1C-108.46 867.811 70.9793 688.372 251.527 507.848" stroke="#2FBFD3" stroke-width="26" stroke-miterlimit="10" stroke-linecap="round"/>
</g>
<g style="mix-blend-mode:hard-light" opacity="0.34">
<path d="M1260.75 533.247C1301.45 492.67 1341.33 452.795 1381.87 412.122" stroke="#86D3F0" stroke-width="26" stroke-miterlimit="10" stroke-linecap="round"/>
</g>
<g style="mix-blend-mode:hard-light" opacity="0.34">
<path d="M1161.02 633.028C1185.02 609.103 1209.75 584.38 1233.54 560.447" stroke="#2FBFD3" stroke-width="26" stroke-miterlimit="10" stroke-linecap="round"/>
</g>
<g style="mix-blend-mode:hard-light" opacity="0.34">
<path d="M795.811 998.186C908.292 885.833 1020.74 772.587 1133.82 660.242" stroke="#2FBFD3" stroke-width="26" stroke-miterlimit="10" stroke-linecap="round"/>
</g>
<path opacity="0.34" d="M134.349 26.7475C212.058 -52.0303 291.012 -129.389 368.721 -207.624" stroke="white" stroke-width="11" stroke-miterlimit="10" stroke-linecap="round"/>
<path opacity="0.34" d="M-217.343 378.442C-109.336 269.367 -0.8753 162.501 107.219 53.8804" stroke="white" stroke-width="11" stroke-miterlimit="10" stroke-linecap="round"/>
<g style="mix-blend-mode:hard-light" opacity="0.34">
<path d="M385.612 69.9821C390.317 64.567 395.9 59.7819 401.714 53.8804" stroke="#2FBFD3" stroke-width="26" stroke-miterlimit="10" stroke-linecap="round"/>
</g>
<g style="mix-blend-mode:hard-light" opacity="0.34">
<path d="M-147.289 618.252C-55.9027 527.751 35.0132 436.037 126.057 344.97" stroke="#2FBFD3" stroke-width="26" stroke-miterlimit="10" stroke-linecap="round"/>
</g>
<path opacity="0.34" d="M576.629 29.0619C582.921 22.61 590.099 15.4325 596.814 8.87695" stroke="white" stroke-width="11" stroke-miterlimit="10" stroke-linecap="round"/>
<g opacity="0.34">
<path d="M1112.63 626.492L1096.94 653.655H1128.32L1112.63 626.492Z" fill="white"/>
<path d="M1112.63 667.49L1096.94 694.661H1128.32L1112.63 667.49Z" fill="white"/>
<path d="M1112.63 708.497L1096.94 735.66H1128.32L1112.63 708.497Z" fill="white"/>
</g>
<g opacity="0.34">
<path d="M377.97 736.961L362.283 764.133H393.657L377.97 736.961Z" fill="white"/>
<path d="M377.97 777.968L362.283 805.139H393.657L377.97 777.968Z" fill="white"/>
<path d="M377.97 818.97L362.283 846.141H393.657L377.97 818.97Z" fill="white"/>
</g>
<g opacity="0.34">
<path d="M506.832 3.33496L491.146 30.506H522.519L506.832 3.33496Z" fill="white"/>
</g>
</g>
</g>
</svg>
