<svg width="40" height="47" viewBox="0 0 40 47" fill="none" xmlns="http://www.w3.org/2000/svg">
<path fill-rule="evenodd" clip-rule="evenodd" d="M34 13.7083V15.6667H40V41.125C40 42.6831 39.3679 44.1775 38.2426 45.2793C37.1174 46.381 35.5913 47 34 47H6C4.4087 47 2.88258 46.381 1.75736 45.2793C0.632141 44.1775 0 42.6831 0 41.125V15.6667H6V13.7083C6 10.0727 7.475 6.58589 10.1005 4.01508C12.726 1.44427 16.287 0 20 0C23.713 0 27.274 1.44427 29.8995 4.01508C32.525 6.58589 34 10.0727 34 13.7083ZM10 15.6667H30V13.7083C30 11.1114 28.9464 8.62087 27.0711 6.78458C25.1957 4.94829 22.6522 3.91667 20 3.91667C17.3478 3.91667 14.8043 4.94829 12.9289 6.78458C11.0536 8.62087 10 11.1114 10 13.7083V15.6667ZM22 27H21H19H18V27.4167V28V35V35.25V36H19H21H22V35.25V35V28V27.4167V27Z" fill="#FFD90F"/>
</svg>
