<svg width="181" height="151" viewBox="0 0 181 151" fill="none" xmlns="http://www.w3.org/2000/svg">
<path d="M149.626 105.505C126.147 116.258 103.043 113.21 103.043 113.21C100.632 112.711 96.3002 111.857 92.6337 111.639C85.7555 128.117 77.1255 137.208 72.62 141.144C75.0478 136.173 78.6981 127.59 80.1233 118.468C78.926 118.549 77.439 118.484 75.5577 118.216C11.7121 110.141 -5.38326 58.9945 13.8847 36.2637C33.1523 13.5328 97.4784 10.1904 138.289 29.6616C179.099 49.1324 181.457 91.2784 149.626 105.505Z" fill="#FAFAFA"/>
<path d="M44.3596 57.5724C42.5138 57.3784 41.4308 56.5084 40.6744 55.5923L41.6909 54.4926C42.2731 55.2294 43.0704 55.9085 44.2957 56.0373C45.6164 56.1761 46.7017 55.341 46.8656 53.7816C47.0278 52.2381 46.2304 51.2533 44.8937 51.1128C44.1617 51.0359 43.6945 51.1959 42.9634 51.5696L42.1166 50.9014L43.052 45.3689L49.0033 45.9944L48.8394 47.5538L44.4953 47.0972L43.9104 50.0603C44.4304 49.8575 44.9228 49.7645 45.5593 49.8314C47.5165 50.0371 49.0033 51.3517 48.7323 53.9295C48.4614 56.5073 46.3964 57.7865 44.3596 57.5724ZM54.9781 58.6884C52.6708 58.4459 51.4067 56.2377 51.8348 52.1641C52.2597 48.1224 53.9469 46.3048 56.2542 46.5473C58.5456 46.7881 59.8339 48.9185 59.4091 52.9602C58.981 57.0338 57.2695 58.9293 54.9781 58.6884ZM55.132 57.2245C56.3254 57.3499 57.2866 56.1639 57.6429 52.7746C57.9941 49.433 57.2971 48.1049 56.1037 47.9794C54.9102 47.854 53.9364 49.0065 53.5852 52.3481C53.229 55.7374 53.9385 57.0991 55.132 57.2245ZM69.6714 47.0566L71.0876 47.2054L70.9154 48.8444C70.7615 50.3083 70.1588 52.063 68.2227 53.0339C68.0635 52.7115 67.5844 52.0659 67.334 51.8465C69.0113 51.0414 69.3888 49.7458 69.5025 48.6637L69.6714 47.0566ZM70.3875 47.1318L74.3656 47.55L74.2184 48.9502L70.2403 48.5321L70.3875 47.1318ZM73.6654 47.4764L75.0976 47.6269L74.7112 51.3026C74.6711 51.6845 74.7138 51.7373 74.9525 51.7624C75.0639 51.7741 75.5253 51.8226 75.6526 51.836C75.9231 51.8644 75.9943 51.6466 76.1883 50.1065C76.4497 50.3753 77.015 50.6599 77.3869 50.7956C77.0539 52.7394 76.6645 53.2294 75.678 53.1257C75.4393 53.1006 74.8028 53.0337 74.5641 53.0086C73.4184 52.8882 73.1403 52.4729 73.2791 51.1521L73.6654 47.4764ZM68.1088 53.1989L74.8079 53.903L74.6641 55.2715L67.965 54.5674L68.1088 53.1989ZM74.3624 53.8562L74.6488 53.8863L74.9403 53.8686L75.8691 54.3685C74.1412 58.5628 70.6768 60.4511 66.6219 61.0706C66.5046 60.6561 66.2214 59.9828 65.9701 59.6185C69.6784 59.236 72.9351 57.4869 74.3373 54.0949L74.3624 53.8562ZM69.7874 54.6785C70.6822 57.4914 72.953 59.6124 76.3784 60.6964C76.0108 60.9795 75.5143 61.5708 75.2497 61.9452C71.6819 60.6854 69.4396 58.2939 68.3913 54.95L69.7874 54.6785ZM61.7743 54.0776C63.1603 53.9015 65.2732 53.5444 67.3208 53.1965L67.3587 54.5197C65.5129 54.9371 63.5843 55.3779 62.0718 55.6855L61.7743 54.0776ZM62.5557 48.7863L67.934 49.3516L67.7885 50.7359L62.4102 50.1706L62.5557 48.7863ZM65.0744 45.946L66.5542 46.1015L65.1794 59.1815C65.0958 59.9771 64.8966 60.3423 64.3941 60.5308C63.9092 60.705 63.2041 60.6792 62.1237 60.5496C62.0985 60.1769 61.9728 59.5362 61.822 59.1343C62.4886 59.2204 63.1569 59.2907 63.3638 59.3124C63.5723 59.3182 63.6745 59.2646 63.6979 59.0418L65.0744 45.946ZM89.3549 48.5141L90.8189 48.6679L90.5897 50.8479L89.1258 50.694L89.3549 48.5141ZM85.4977 49.7014L94.2813 50.6246L94.1559 51.818L85.3723 50.8948L85.4977 49.7014ZM87.7276 52.9764L87.5938 54.2494L91.4127 54.6508L91.5465 53.3778L87.7276 52.9764ZM86.5507 51.7748L93.0111 52.4538L92.6532 55.8591L86.1928 55.18L86.5507 51.7748ZM84.9685 55.8075L92.7815 56.6287L92.6561 57.8221L86.1956 57.1431L85.5768 63.0307L84.2243 62.8885L84.9685 55.8075ZM92.2564 56.5735L93.6248 56.7173L93.0244 62.4299C92.9592 63.0504 92.8127 63.3729 92.3931 63.5379C91.9594 63.6854 91.3689 63.6394 90.4937 63.5475C90.4828 63.1924 90.3596 62.6807 90.2356 62.3298C90.775 62.4026 91.2682 62.4544 91.4274 62.4711C91.5882 62.472 91.6409 62.4292 91.6576 62.2701L92.2564 56.5735ZM87.0651 58.055L88.1312 58.167L87.7031 62.2406L86.6369 62.1285L87.0651 58.055ZM87.8289 58.1352L91.0909 58.4781L90.7414 61.8038L87.4793 61.4609L87.5797 60.5062L89.7597 60.7353L89.9069 59.335L87.7269 59.1059L87.8289 58.1352ZM82.1653 49.1098L83.5974 49.2603L82.1858 62.6903L80.7537 62.5398L82.1653 49.1098ZM79.5955 51.9769L85.1648 52.5622L85.0176 53.9625L79.4483 53.3772L79.5955 51.9769ZM81.8602 52.778L82.7287 53.2393C81.9535 55.4102 80.588 58.1464 79.2977 59.5553C79.1997 59.1106 78.9148 58.4532 78.7146 58.0621C79.8685 56.8803 81.1888 54.5737 81.8602 52.778ZM84.6198 48.2577L85.5848 49.4853C84.0606 49.9043 81.9502 50.0847 80.1781 50.1075C80.1479 49.7826 80.0105 49.2533 79.8689 48.9167C81.5505 48.836 83.4717 48.6197 84.6198 48.2577ZM83.0236 54.1069C83.3846 54.4988 84.5415 56.197 84.7861 56.6249L83.7729 57.6929C83.5157 56.9258 82.6754 55.2769 82.2934 54.6254L83.0236 54.1069ZM97.4832 52.1516C98.1055 52.2009 98.6658 52.2276 98.9714 52.2276C100.145 52.2383 103.021 52.2672 105.959 52.3345C107.676 52.3703 109.277 52.442 110.38 52.5097L110.227 54.1185C109.336 54.0249 107.95 53.8953 107.099 54.0311C104.916 54.4451 103.263 56.5558 103.063 58.4494C102.759 61.3455 105.362 62.6004 107.992 62.9895L107.226 64.6143C104.124 64.1274 101.036 62.1296 101.405 58.613C101.656 56.2261 103.276 54.4337 104.654 53.7258C103.028 53.7319 99.2824 53.7082 97.476 53.9045L97.4832 52.1516ZM107.749 55.6599C108.074 56.241 108.559 57.2895 108.807 57.9913L107.773 58.3331C107.477 57.4814 107.156 56.7077 106.735 55.9716L107.749 55.6599ZM109.573 55.1437C109.914 55.7265 110.434 56.7465 110.714 57.4516L109.677 57.8253C109.364 56.972 109.008 56.2267 108.587 55.4906L109.573 55.1437ZM47.3877 67.0287C47.3015 67.3897 47.2061 67.991 47.1501 68.3712C46.2851 74.7638 44.3217 77.6786 40.7678 79.6539L39.4276 78.3225C40.0339 78.0645 40.8001 77.6624 41.398 77.1782C43.6355 75.4828 44.97 72.8881 45.4919 68.2291C45.5286 67.879 45.5495 67.2216 45.526 66.833L47.3877 67.0287ZM52.5087 70.9615C52.4342 71.2111 52.3497 71.5562 52.3296 71.7471C52.0953 73.3635 51.4277 77.8784 50.562 79.3802C50.1509 80.077 49.5572 80.3686 48.5866 80.2665C47.7432 80.1779 46.8111 80.0156 46.0221 79.8683L45.9909 78.1758C46.8049 78.39 47.624 78.5566 48.2764 78.6251C48.7538 78.6753 49.041 78.5446 49.2562 78.1811C49.916 77.1082 50.5008 73.5338 50.6798 71.8311L42.5645 70.9782C41.9757 70.9163 41.2278 70.8377 40.6006 70.8361L40.7762 69.1653C41.3741 69.2925 42.1028 69.4013 42.7074 69.4648L50.3613 70.2693C50.775 70.3128 51.1284 70.3177 51.4533 70.2875L52.5087 70.9615ZM57.2936 73.6524C57.8137 73.7554 58.7793 73.9051 59.6545 73.9971C61.1344 74.1527 67.006 74.7698 68.2949 74.9053C69.0746 74.9872 69.7019 74.9888 70.0871 74.9971L69.8798 76.9702C69.5314 76.9175 68.8061 76.7769 68.1219 76.705C66.817 76.5679 60.9454 75.9508 59.4655 75.7952C58.5744 75.7016 57.6323 75.6347 57.0862 75.6256L57.2936 73.6524ZM84.024 71.8929C84.3725 72.557 84.9304 73.6774 85.2195 74.4478L84.0521 74.84C83.7178 73.8878 83.3701 73.063 82.8934 72.2406L84.024 71.8929ZM86.1 71.2745C86.4836 71.9101 87.0592 73.0163 87.3482 73.7867L86.2093 74.214C85.8449 73.2426 85.4603 72.4622 84.9803 71.6716L86.1 71.2745ZM77.0125 81.6615C77.1212 80.6272 77.8403 73.7849 77.9808 72.4483C78.0343 71.9391 78.0635 71.2021 78.0232 70.6669L79.9964 70.8743C79.8792 71.3768 79.742 72.0703 79.6834 72.6272C79.456 74.7913 78.8154 80.8857 78.7151 81.8405C78.6649 82.3178 78.6265 83.2952 78.63 83.8747L76.6728 83.669C76.8109 83.1204 76.9489 82.2662 77.0125 81.6615ZM79.0683 74.9597C81.121 75.7868 84.2845 77.3741 85.8842 78.3789L85.0034 80.0238C83.2914 78.8625 80.5569 77.4811 78.8793 76.7578L79.0683 74.9597ZM92.586 75.0773L97.1051 75.5523L96.9864 76.6821L92.4673 76.2071L92.586 75.0773ZM92.3067 77.7347L96.8258 78.2097L96.7104 79.3076L92.1913 78.8326L92.3067 77.7347ZM92.0207 80.4557L96.5398 80.9307L96.4194 82.0764L91.9003 81.6014L92.0207 80.4557ZM99.0478 79.2637L105.079 79.8976L104.943 81.1865L98.9123 80.5526L99.0478 79.2637ZM93.6735 72.5371L96.2513 72.808L96.1292 73.9696L93.5514 73.6987L93.6735 72.5371ZM98.6573 72.4174L104.752 73.0579L104.62 74.315L98.5252 73.6744L98.6573 72.4174ZM97.5224 82.144L105.049 82.9351L104.91 84.2558L97.3836 83.4647L97.5224 82.144ZM101.199 77.9292L102.631 78.0798L101.715 86.7997L100.283 86.6492L101.199 77.9292ZM94.3875 75.8458L95.4219 75.9545L94.8699 81.2056L93.8356 81.0969L94.3875 75.8458ZM104.306 73.0111L105.659 73.1532C105.659 73.1532 105.606 73.5016 105.572 73.675C105.202 76.2746 104.948 77.3098 104.556 77.6708C104.304 77.9338 104.004 78.031 103.603 78.021C103.263 78.0336 102.611 77.965 101.962 77.8646C101.97 77.4794 101.897 76.9568 101.741 76.6026C102.324 76.7122 102.832 76.7816 103.055 76.8051C103.262 76.8268 103.391 76.8243 103.517 76.6928C103.731 76.4901 103.936 75.6107 104.286 73.202L104.306 73.0111ZM99.0853 77.8358L100.332 78.2242C99.8594 79.6547 99.1645 81.0617 98.4293 81.9337C98.1931 81.7319 97.6504 81.3852 97.3472 81.2086C98.1075 80.4036 98.7078 79.1314 99.0853 77.8358ZM93.6364 71.0531L94.9731 71.4992C94.1552 73.6173 92.9655 75.5998 91.6776 76.832C91.4799 76.5699 90.9556 76.0482 90.6733 75.8255C91.9143 74.7332 92.9709 72.9459 93.6364 71.0531ZM92.0132 75.0171L93.2384 75.1459L92.7952 79.3627C92.5862 81.3517 92.1059 84.0845 90.7745 85.7303C90.5718 85.516 90.0517 85.1074 89.7787 84.9499C91.0363 83.3929 91.381 81.032 91.57 79.2339L92.0132 75.0171ZM96.6914 75.5088L97.9485 75.6409L96.9851 84.8064C96.9166 85.4589 96.7315 85.8416 96.2785 86.0192C95.8095 86.1952 95.1555 86.1425 94.1052 86.0321C94.0943 85.677 93.9317 85.0808 93.7935 84.7123C94.5221 84.8211 95.2063 84.893 95.4149 84.8988C95.6217 84.9206 95.708 84.8653 95.7297 84.6584L96.6914 75.5088ZM100.73 73.0535L102.083 73.1957C101.607 75.4301 100.797 77.163 98.3986 77.9406C98.2729 77.6056 97.973 77.0914 97.6941 76.8369C99.7207 76.2294 100.338 74.7981 100.73 73.0535ZM95.8853 72.7695L96.1876 72.8013L96.3853 72.7577L97.2019 73.4067C96.7465 74.3723 96.0147 75.5181 95.4571 76.2317C95.2225 76.014 94.8197 75.7143 94.5625 75.5586C95.0197 74.8826 95.5714 73.7662 95.8602 73.0082L95.8853 72.7695ZM117.134 85.5084L118.385 84.9321C119.422 85.7811 120.737 87.0455 121.373 87.8845L120.016 88.5464C119.443 87.7299 118.18 86.4228 117.134 85.5084ZM110.007 79.9973L120.557 81.1061L120.427 82.3473L109.877 81.2384L110.007 79.9973ZM108.927 74.2046L115.021 74.8452L114.891 76.0863L108.796 75.4458L108.927 74.2046ZM107.967 82.1156L121.938 83.584L121.804 84.857L107.833 83.3886L107.967 82.1156ZM114.185 83.107L115.713 83.2676L115.345 86.7683C115.264 87.5321 115.068 87.8654 114.442 88.0087C113.849 88.1395 112.988 88.0651 111.763 87.9363C111.725 87.5301 111.559 86.9657 111.408 86.5637C112.295 86.7051 113.217 86.8021 113.474 86.813C113.73 86.8238 113.8 86.7669 113.82 86.5759L114.185 83.107ZM110.505 84.136L111.873 84.7463C110.957 85.8084 109.551 86.7868 108.332 87.3665C108.088 87.0835 107.564 86.5618 107.253 86.3039C108.462 85.8197 109.737 85.0205 110.505 84.136ZM111.649 72.9463L113.049 73.0935L112.352 79.7289L110.952 79.5817L111.649 72.9463ZM115.69 74.9154L122.595 75.6412L122.465 76.8824L115.559 76.1566L115.69 74.9154ZM118.603 73.6771L120.019 73.826L119.322 80.4614L117.905 80.3126L118.603 73.6771ZM112.599 75.8455C113.094 76.1871 114.618 77.4573 115.014 77.8207L114.111 78.7555C113.61 78.1718 112.341 76.9284 111.765 76.4335L112.599 75.8455ZM119.798 76.0872C120.402 77.3735 121.63 78.854 122.738 79.646C122.41 79.853 121.914 80.2835 121.674 80.58C120.615 79.6321 119.416 77.8812 118.801 76.3847L119.798 76.0872ZM111.382 75.0258L112.361 75.5147C111.493 77.0324 110.046 78.5535 108.713 79.2982C108.526 78.9406 108.176 78.4373 107.899 78.1669C109.166 77.5922 110.589 76.2939 111.382 75.0258ZM118.227 75.8739L119.205 76.3628C118.297 77.8118 116.796 79.2308 115.406 79.9051C115.231 79.5811 114.868 79.0602 114.606 78.7914C115.916 78.2695 117.409 77.075 118.227 75.8739ZM131.464 84.6335L131.714 78.7393L131.871 76.6322L134.019 76.858L133.734 78.9517L132.753 84.769L131.464 84.6335ZM131.69 88.7598C131.006 88.6878 130.547 88.1569 130.622 87.4409C130.699 86.7089 131.276 86.2708 131.944 86.3411C132.597 86.4096 133.07 86.9581 132.993 87.6901C132.918 88.4061 132.342 88.8283 131.69 88.7598Z" fill="#222222"/>
</svg>
