<svg width="48" height="48" viewBox="0 0 48 48" fill="none" xmlns="http://www.w3.org/2000/svg">
<circle cx="24" cy="24" r="23.5" stroke="url(#paint0_linear_2765_292)"/>
<path d="M14 26H23V36H14V26ZM25 36H34V26H25V36ZM36 22V24H25V20.953C24.674 20.982 24.342 21 24 21C23.658 21 23.326 20.982 23 20.953V24H12V22C12 21.2044 12.3161 20.4413 12.8787 19.8787C13.4413 19.3161 14.2044 19 15 19H18.134C17.4409 18.3681 16.8917 17.5946 16.5235 16.732C16.1553 15.8693 15.9768 14.9376 16 14H18C18 16.881 19.971 18.307 22.152 18.8C21.4971 17.6318 21.104 16.3352 21 15C21 14.2044 21.3161 13.4413 21.8787 12.8787C22.4413 12.3161 23.2044 12 24 12C24.7956 12 25.5587 12.3161 26.1213 12.8787C26.6839 13.4413 27 14.2044 27 15C26.896 16.3352 26.5029 17.6318 25.848 18.8C28.029 18.307 30 16.881 30 14H32C32.0232 14.9376 31.8447 15.8693 31.4765 16.732C31.1083 17.5946 30.5591 18.3681 29.866 19H33C33.7956 19 34.5587 19.3161 35.1213 19.8787C35.6839 20.4413 36 21.2044 36 22ZM23 15C23.1207 16.0628 23.4613 17.0889 24 18.013C24.5387 17.0889 24.8793 16.0628 25 15C25 14.7348 24.8946 14.4804 24.7071 14.2929C24.5196 14.1054 24.2652 14 24 14C23.7348 14 23.4804 14.1054 23.2929 14.2929C23.1054 14.4804 23 14.7348 23 15Z" fill="#ED9C51"/>
<defs>
<linearGradient id="paint0_linear_2765_292" x1="4.94118" y1="13.5849" x2="41.3754" y2="23.6332" gradientUnits="userSpaceOnUse">
<stop stop-color="#D9863A"/>
<stop offset="1" stop-color="#FFD90F"/>
</linearGradient>
</defs>
</svg>
