<svg width="32" height="32" viewBox="0 0 32 32" fill="none" xmlns="http://www.w3.org/2000/svg">
<path d="M16 0C7.17733 0 0 7.17733 0 16C0 24.8227 7.17733 32 16 32C24.8227 32 32 24.8227 32 16C32 7.17733 24.8227 0 16 0ZM16 30.6667C7.91333 30.6667 1.33333 24.0867 1.33333 16C1.33333 7.91333 7.91333 1.33333 16 1.33333C24.0867 1.33333 30.6667 7.91333 30.6667 16C30.6667 24.0867 24.0867 30.6667 16 30.6667Z" fill="#FAFAFA"/>
<path d="M22.1507 12.7027L18.38 8.86408C18.1213 8.60141 17.7 8.59741 17.4373 8.85608C17.1747 9.11474 17.1707 9.53608 17.4293 9.80008L21.204 13.6427C21.4533 13.8921 21.8013 14.2734 22.1573 14.6747C22.332 14.8721 22.456 15.0961 22.5387 15.3321H8.66667C8.29867 15.3321 8 15.6307 8 15.9987C8 16.3667 8.29867 16.6654 8.66667 16.6654H22.5387C22.4547 16.9014 22.332 17.1254 22.156 17.3227C21.8013 17.7241 21.4533 18.1054 21.2 18.3587L17.4293 22.1974C17.1707 22.4601 17.1747 22.8827 17.4373 23.1414C17.568 23.2681 17.736 23.3321 17.9053 23.3321C18.0773 23.3321 18.2507 23.2654 18.38 23.1334L22.1467 19.2987C22.4107 19.0347 22.78 18.6321 23.1547 18.2081C24.2707 16.9494 24.2707 15.0507 23.1547 13.7921C22.7787 13.3681 22.4093 12.9641 22.1507 12.7054V12.7027Z" fill="#FAFAFA"/>
</svg>
