<?xml version="1.0" standalone="no"?>
<!DOCTYPE svg PUBLIC "-//W3C//DTD SVG 20010904//EN"
 "http://www.w3.org/TR/2001/REC-SVG-20010904/DTD/svg10.dtd">
<svg version="1.0" xmlns="http://www.w3.org/2000/svg"
 width="132.000000pt" height="132.000000pt" viewBox="0 0 132.000000 132.000000"
 preserveAspectRatio="xMidYMid meet">
<metadata>
Created by potrace 1.14, written by Peter Selinger 2001-2017
</metadata>
<g transform="translate(0.000000,132.000000) scale(0.100000,-0.100000)"
fill="#000000" stroke="none">
<path d="M260 1266 c0 -25 0 -300 0 -611 0 -311 0 -583 0 -605 l0 -41 68 3 67
3 2 265 c2 146 5 270 7 277 4 8 79 12 285 11 154 0 284 2 288 5 11 7 11 132 1
143 -9 9 -626 10 -634 1 -4 -3 -4 -13 -1 -22 6 -15 73 -17 507 -16 47 0 87 -4
91 -10 3 -6 4 -21 1 -35 l-4 -24 -282 0 c-154 0 -286 -4 -291 -8 -6 -4 -10
-109 -10 -279 l1 -273 -28 0 -28 0 -2 627 c-3 589 -4 628 -20 631 -15 3 -18
-4 -18 -42z"/>
<path d="M330 1280 c0 -11 6 -20 13 -21 70 -4 639 0 644 4 3 4 3 13 0 22 -6
13 -48 15 -332 15 -318 0 -325 0 -325 -20z"/>
</g>
</svg>
